%TF.GenerationSoftware,KiCad,Pcbnew,10.0.4*%
%TF.CreationDate,2026-09-02T19:40:37+05:30*%
%TF.ProjectId,Servo Controller 555,53657276-6f20-4436-9f6e-74726f6c6c65,01*%
%TF.SameCoordinates,Original*%
%TF.FileFunction,Soldermask,Top*%
%TF.FilePolarity,Negative*%
%FSLAX46Y46*%
G04 Gerber Fmt 4.6, Leading zero omitted, Abs format (unit mm)*
G04 Created by KiCad (PCBNEW 10.0.4) date 2026-09-02 19:40:37*
%MOMM*%
%LPD*%
G01*
G04 APERTURE LIST*
G04 Aperture macros list*
%AMRoundRect*
0 Rectangle with rounded corners*
0 $1 Rounding radius*
0 $2 $3 $4 $5 $6 $7 $8 $9 X,Y pos of 4 corners*
0 Add a 4 corners polygon primitive as box body*
4,1,4,$2,$3,$4,$5,$6,$7,$8,$9,$2,$3,0*
0 Add four circle primitives for the rounded corners*
1,1,$1+$1,$2,$3*
1,1,$1+$1,$4,$5*
1,1,$1+$1,$6,$7*
1,1,$1+$1,$8,$9*
0 Add four rect primitives between the rounded corners*
20,1,$1+$1,$2,$3,$4,$5,0*
20,1,$1+$1,$4,$5,$6,$7,0*
20,1,$1+$1,$6,$7,$8,$9,0*
20,1,$1+$1,$8,$9,$2,$3,0*%
G04 Aperture macros list end*
%ADD10R,1.700000X1.700000*%
%ADD11C,1.700000*%
%ADD12RoundRect,0.250000X0.337500X0.475000X-0.337500X0.475000X-0.337500X-0.475000X0.337500X-0.475000X0*%
%ADD13C,3.200000*%
%ADD14C,1.600000*%
%ADD15RoundRect,0.250000X-1.050000X1.050000X-1.050000X-1.050000X1.050000X-1.050000X1.050000X1.050000X0*%
%ADD16C,2.600000*%
%ADD17C,1.800000*%
%ADD18C,4.400000*%
%ADD19RoundRect,0.250000X-0.550000X-0.550000X0.550000X-0.550000X0.550000X0.550000X-0.550000X0.550000X0*%
%ADD20RoundRect,0.250000X0.550000X0.550000X-0.550000X0.550000X-0.550000X-0.550000X0.550000X-0.550000X0*%
%ADD21RoundRect,0.250000X1.500000X0.650000X-1.500000X0.650000X-1.500000X-0.650000X1.500000X-0.650000X0*%
%ADD22RoundRect,0.250000X0.325000X0.450000X-0.325000X0.450000X-0.325000X-0.450000X0.325000X-0.450000X0*%
%ADD23RoundRect,0.375000X-0.625000X-0.375000X0.625000X-0.375000X0.625000X0.375000X-0.625000X0.375000X0*%
%ADD24RoundRect,0.500000X-0.500000X-1.400000X0.500000X-1.400000X0.500000X1.400000X-0.500000X1.400000X0*%
%ADD25C,1.400000*%
%ADD26R,1.800000X1.800000*%
%ADD27RoundRect,0.250000X-0.312500X-0.625000X0.312500X-0.625000X0.312500X0.625000X-0.312500X0.625000X0*%
G04 APERTURE END LIST*
D10*
%TO.C,J1*%
X171000000Y-95277500D03*
D11*
X171000000Y-97817500D03*
X171000000Y-100357500D03*
%TD*%
D12*
%TO.C,C3*%
X140657500Y-91817500D03*
X138582500Y-91817500D03*
%TD*%
D13*
%TO.C,REF\u002A\u002A*%
X172620000Y-79817500D03*
%TD*%
D14*
%TO.C,C2*%
X160120000Y-86817500D03*
X157620000Y-86817500D03*
%TD*%
%TO.C,C1*%
X151815000Y-93507500D03*
X151815000Y-91007500D03*
%TD*%
D13*
%TO.C,REF\u002A\u002A*%
X172620000Y-119817500D03*
%TD*%
D15*
%TO.C,J2*%
X123447500Y-96380000D03*
D16*
X123447500Y-101380000D03*
%TD*%
D17*
%TO.C,RV1*%
X149182500Y-122817500D03*
X146682500Y-122817500D03*
X144182500Y-122817500D03*
D18*
X142282500Y-115817500D03*
X151082500Y-115817500D03*
%TD*%
D19*
%TO.C,U1*%
X154815000Y-91007500D03*
D14*
X154815000Y-93547500D03*
X154815000Y-96087500D03*
X154815000Y-98627500D03*
X162435000Y-98627500D03*
X162435000Y-96087500D03*
X162435000Y-93547500D03*
X162435000Y-91007500D03*
%TD*%
D13*
%TO.C,REF\u002A\u002A*%
X122620000Y-79817500D03*
%TD*%
D20*
%TO.C,D1*%
X166620000Y-104817500D03*
D14*
X159000000Y-104817500D03*
%TD*%
D21*
%TO.C,D2*%
X129620000Y-108817500D03*
X124620000Y-108817500D03*
%TD*%
D22*
%TO.C,D3*%
X139645000Y-106817500D03*
X137595000Y-106817500D03*
%TD*%
D23*
%TO.C,U2*%
X135320000Y-94517500D03*
X135320000Y-96817500D03*
D24*
X141620000Y-96817500D03*
D23*
X135320000Y-99117500D03*
%TD*%
D25*
%TO.C,R4*%
X135620000Y-80007500D03*
X135620000Y-87627500D03*
%TD*%
%TO.C,R1*%
X159000000Y-107817500D03*
X166620000Y-107817500D03*
%TD*%
D26*
%TO.C,D4*%
X139080000Y-83817500D03*
D17*
X141620000Y-83817500D03*
%TD*%
D27*
%TO.C,R3*%
X139157500Y-103817500D03*
X142082500Y-103817500D03*
%TD*%
D25*
%TO.C,R2*%
X159000000Y-110817500D03*
X166620000Y-110817500D03*
%TD*%
D13*
%TO.C,REF\u002A\u002A*%
X122620000Y-119817500D03*
%TD*%
M02*
