%TF.GenerationSoftware,KiCad,Pcbnew,10.0.4*%
%TF.CreationDate,2026-09-02T19:40:37+05:30*%
%TF.ProjectId,Servo Controller 555,53657276-6f20-4436-9f6e-74726f6c6c65,01*%
%TF.SameCoordinates,Original*%
%TF.FileFunction,Copper,L1,Top*%
%TF.FilePolarity,Positive*%
%FSLAX46Y46*%
G04 Gerber Fmt 4.6, Leading zero omitted, Abs format (unit mm)*
G04 Created by KiCad (PCBNEW 10.0.4) date 2026-09-02 19:40:37*
%MOMM*%
%LPD*%
G01*
G04 APERTURE LIST*
G04 Aperture macros list*
%AMRoundRect*
0 Rectangle with rounded corners*
0 $1 Rounding radius*
0 $2 $3 $4 $5 $6 $7 $8 $9 X,Y pos of 4 corners*
0 Add a 4 corners polygon primitive as box body*
4,1,4,$2,$3,$4,$5,$6,$7,$8,$9,$2,$3,0*
0 Add four circle primitives for the rounded corners*
1,1,$1+$1,$2,$3*
1,1,$1+$1,$4,$5*
1,1,$1+$1,$6,$7*
1,1,$1+$1,$8,$9*
0 Add four rect primitives between the rounded corners*
20,1,$1+$1,$2,$3,$4,$5,0*
20,1,$1+$1,$4,$5,$6,$7,0*
20,1,$1+$1,$6,$7,$8,$9,0*
20,1,$1+$1,$8,$9,$2,$3,0*%
G04 Aperture macros list end*
%TA.AperFunction,ComponentPad*%
%ADD10R,1.700000X1.700000*%
%TD*%
%TA.AperFunction,ComponentPad*%
%ADD11C,1.700000*%
%TD*%
%TA.AperFunction,SMDPad,CuDef*%
%ADD12RoundRect,0.250000X0.337500X0.475000X-0.337500X0.475000X-0.337500X-0.475000X0.337500X-0.475000X0*%
%TD*%
%TA.AperFunction,ComponentPad*%
%ADD13C,1.600000*%
%TD*%
%TA.AperFunction,ComponentPad*%
%ADD14RoundRect,0.250000X-1.050000X1.050000X-1.050000X-1.050000X1.050000X-1.050000X1.050000X1.050000X0*%
%TD*%
%TA.AperFunction,ComponentPad*%
%ADD15C,2.600000*%
%TD*%
%TA.AperFunction,ComponentPad*%
%ADD16C,1.800000*%
%TD*%
%TA.AperFunction,ComponentPad*%
%ADD17C,4.400000*%
%TD*%
%TA.AperFunction,ComponentPad*%
%ADD18RoundRect,0.250000X-0.550000X-0.550000X0.550000X-0.550000X0.550000X0.550000X-0.550000X0.550000X0*%
%TD*%
%TA.AperFunction,ComponentPad*%
%ADD19RoundRect,0.250000X0.550000X0.550000X-0.550000X0.550000X-0.550000X-0.550000X0.550000X-0.550000X0*%
%TD*%
%TA.AperFunction,SMDPad,CuDef*%
%ADD20RoundRect,0.250000X1.500000X0.650000X-1.500000X0.650000X-1.500000X-0.650000X1.500000X-0.650000X0*%
%TD*%
%TA.AperFunction,SMDPad,CuDef*%
%ADD21RoundRect,0.250000X0.325000X0.450000X-0.325000X0.450000X-0.325000X-0.450000X0.325000X-0.450000X0*%
%TD*%
%TA.AperFunction,SMDPad,CuDef*%
%ADD22RoundRect,0.375000X-0.625000X-0.375000X0.625000X-0.375000X0.625000X0.375000X-0.625000X0.375000X0*%
%TD*%
%TA.AperFunction,SMDPad,CuDef*%
%ADD23RoundRect,0.500000X-0.500000X-1.400000X0.500000X-1.400000X0.500000X1.400000X-0.500000X1.400000X0*%
%TD*%
%TA.AperFunction,ComponentPad*%
%ADD24C,1.400000*%
%TD*%
%TA.AperFunction,ComponentPad*%
%ADD25R,1.800000X1.800000*%
%TD*%
%TA.AperFunction,SMDPad,CuDef*%
%ADD26RoundRect,0.250000X-0.312500X-0.625000X0.312500X-0.625000X0.312500X0.625000X-0.312500X0.625000X0*%
%TD*%
%TA.AperFunction,ViaPad*%
%ADD27C,0.600000*%
%TD*%
%TA.AperFunction,Conductor*%
%ADD28C,0.200000*%
%TD*%
%TA.AperFunction,Conductor*%
%ADD29C,0.400000*%
%TD*%
G04 APERTURE END LIST*
D10*
%TO.P,J1,1,Pin_1_1*%
%TO.N,GND*%
X171000000Y-95277500D03*
D11*
%TO.P,J1,2,Pin_2_2*%
%TO.N,+5V*%
X171000000Y-97817500D03*
%TO.P,J1,3,Pin_3_3*%
%TO.N,/SIGNAL*%
X171000000Y-100357500D03*
%TD*%
D12*
%TO.P,C3,1*%
%TO.N,+5V*%
X140657500Y-91817500D03*
%TO.P,C3,2*%
%TO.N,GND*%
X138582500Y-91817500D03*
%TD*%
D13*
%TO.P,C2,1*%
%TO.N,+5V*%
X160120000Y-86817500D03*
%TO.P,C2,2*%
%TO.N,GND*%
X157620000Y-86817500D03*
%TD*%
%TO.P,C1,1*%
%TO.N,Net-(D1-K)*%
X151815000Y-93507500D03*
%TO.P,C1,2*%
%TO.N,GND*%
X151815000Y-91007500D03*
%TD*%
D14*
%TO.P,J2,1,Pin_1_1*%
%TO.N,GND*%
X123447500Y-96380000D03*
D15*
%TO.P,J2,2,Pin_2_2*%
%TO.N,Net-(D2-A)*%
X123447500Y-101380000D03*
%TD*%
D16*
%TO.P,RV1,1,1_1*%
%TO.N,Net-(R2-Pad1)*%
X149182500Y-122817500D03*
%TO.P,RV1,2,2_2*%
%TO.N,+5V*%
X146682500Y-122817500D03*
%TO.P,RV1,3,3_3*%
%TO.N,unconnected-(RV1-Pad3)*%
X144182500Y-122817500D03*
D17*
%TO.P,RV1,MP*%
%TO.N,N/C*%
X142282500Y-115817500D03*
X151082500Y-115817500D03*
%TD*%
D18*
%TO.P,U1,1,GND_1*%
%TO.N,GND*%
X154815000Y-91007500D03*
D13*
%TO.P,U1,2,TRIG_2*%
%TO.N,Net-(D1-K)*%
X154815000Y-93547500D03*
%TO.P,U1,3,OUT_3*%
%TO.N,/SIGNAL*%
X154815000Y-96087500D03*
%TO.P,U1,4,~{RST}_4*%
%TO.N,+5V*%
X154815000Y-98627500D03*
%TO.P,U1,5,CONT_5*%
%TO.N,unconnected-(U1-CONT-Pad5)*%
X162435000Y-98627500D03*
%TO.P,U1,6,THRES_6*%
%TO.N,Net-(D1-K)*%
X162435000Y-96087500D03*
%TO.P,U1,7,DISCH_7*%
%TO.N,Net-(D1-A)*%
X162435000Y-93547500D03*
%TO.P,U1,8,VCC_8*%
%TO.N,+5V*%
X162435000Y-91007500D03*
%TD*%
D19*
%TO.P,D1,1,K_1*%
%TO.N,Net-(D1-K)*%
X166620000Y-104817500D03*
D13*
%TO.P,D1,2,A_2*%
%TO.N,Net-(D1-A)*%
X159000000Y-104817500D03*
%TD*%
D20*
%TO.P,D2,1,K_1*%
%TO.N,+12V*%
X129620000Y-108817500D03*
%TO.P,D2,2,A_2*%
%TO.N,Net-(D2-A)*%
X124620000Y-108817500D03*
%TD*%
D21*
%TO.P,D3,1,K_1*%
%TO.N,Net-(D3-K)*%
X139645000Y-106817500D03*
%TO.P,D3,2,A_2*%
%TO.N,+12V*%
X137595000Y-106817500D03*
%TD*%
D22*
%TO.P,U2,1,GND_1*%
%TO.N,GND*%
X135320000Y-94517500D03*
%TO.P,U2,2,VO_2*%
%TO.N,+5V*%
X135320000Y-96817500D03*
D23*
X141620000Y-96817500D03*
D22*
%TO.P,U2,3,VI_3*%
%TO.N,+12V*%
X135320000Y-99117500D03*
%TD*%
D24*
%TO.P,R4,1*%
%TO.N,Net-(D4-K)*%
X135620000Y-80007500D03*
%TO.P,R4,2*%
%TO.N,GND*%
X135620000Y-87627500D03*
%TD*%
%TO.P,R1,1*%
%TO.N,Net-(D1-A)*%
X159000000Y-107817500D03*
%TO.P,R1,2*%
%TO.N,Net-(D1-K)*%
X166620000Y-107817500D03*
%TD*%
D25*
%TO.P,D4,1,K_1*%
%TO.N,Net-(D4-K)*%
X139080000Y-83817500D03*
D16*
%TO.P,D4,2,A_2*%
%TO.N,+5V*%
X141620000Y-83817500D03*
%TD*%
D26*
%TO.P,R3,1*%
%TO.N,Net-(D3-K)*%
X139157500Y-103817500D03*
%TO.P,R3,2*%
%TO.N,GND*%
X142082500Y-103817500D03*
%TD*%
D24*
%TO.P,R2,1*%
%TO.N,Net-(R2-Pad1)*%
X159000000Y-110817500D03*
%TO.P,R2,2*%
%TO.N,Net-(D1-K)*%
X166620000Y-110817500D03*
%TD*%
D27*
%TO.N,GND*%
X144600000Y-103800000D03*
%TD*%
%TO.N,GND*%
D28*
X157620000Y-88202500D02*
X154815000Y-91007500D01*
X135620000Y-88855000D02*
X138582500Y-91817500D01*
X135620000Y-87627500D02*
X135620000Y-88855000D01*
X157620000Y-86817500D02*
X157620000Y-88202500D01*
X151815000Y-91007500D02*
X154815000Y-91007500D01*
D29*
X123447500Y-96380000D02*
X133457500Y-96380000D01*
D28*
X142082500Y-103817500D02*
X144582500Y-103817500D01*
D29*
X133457500Y-96380000D02*
X135320000Y-94517500D01*
D28*
X135882500Y-94517500D02*
X138582500Y-91817500D01*
X144582500Y-103817500D02*
X144600000Y-103800000D01*
X135320000Y-94517500D02*
X135882500Y-94517500D01*
%TO.N,+5V*%
D29*
X146810000Y-98627500D02*
X146682500Y-98755000D01*
X141620000Y-96817500D02*
X143430000Y-98627500D01*
X146682500Y-98755000D02*
X146682500Y-106760000D01*
X164620000Y-81817500D02*
X168620000Y-85817500D01*
X154815000Y-98627500D02*
X162435000Y-91007500D01*
X153620000Y-81817500D02*
X164620000Y-81817500D01*
X160120000Y-86817500D02*
X160120000Y-88692500D01*
X141620000Y-96817500D02*
X141620000Y-92780000D01*
X168620000Y-85817500D02*
X168620000Y-95437500D01*
X143430000Y-98627500D02*
X146810000Y-98627500D01*
X135320000Y-96817500D02*
X141620000Y-96817500D01*
X154815000Y-98627500D02*
X146810000Y-98627500D01*
X143620000Y-91817500D02*
X153620000Y-81817500D01*
X160120000Y-88692500D02*
X162435000Y-91007500D01*
X140657500Y-91817500D02*
X143620000Y-91817500D01*
X141620000Y-83817500D02*
X141620000Y-90855000D01*
X141620000Y-92780000D02*
X140657500Y-91817500D01*
X141620000Y-90855000D02*
X140657500Y-91817500D01*
X168620000Y-95437500D02*
X171000000Y-97817500D01*
X146682500Y-122817500D02*
X146682500Y-106760000D01*
%TO.N,Net-(D1-K)*%
D28*
X166620000Y-100272500D02*
X166620000Y-104817500D01*
X166620000Y-107817500D02*
X166620000Y-110817500D01*
X151815000Y-93507500D02*
X154775000Y-93507500D01*
X162435000Y-96087500D02*
X166620000Y-100272500D01*
X166620000Y-104817500D02*
X166620000Y-107817500D01*
%TO.N,Net-(D2-A)*%
D29*
X123447500Y-101380000D02*
X123447500Y-107645000D01*
X123447500Y-107645000D02*
X124620000Y-108817500D01*
%TO.N,Net-(R2-Pad1)*%
D28*
X159000000Y-110817500D02*
X159000000Y-113000000D01*
X159000000Y-113000000D02*
X149182500Y-122817500D01*
%TO.N,Net-(D1-A)*%
X159000000Y-104817500D02*
X159000000Y-96982500D01*
X159000000Y-96982500D02*
X162435000Y-93547500D01*
X159000000Y-104817500D02*
X159000000Y-107817500D01*
%TO.N,+12V*%
D29*
X135320000Y-103117500D02*
X135320000Y-99117500D01*
X135320000Y-99117500D02*
X137620000Y-101417500D01*
X129620000Y-108817500D02*
X135320000Y-103117500D01*
X137620000Y-106792500D02*
X137595000Y-106817500D01*
X137620000Y-101417500D02*
X137620000Y-106792500D01*
%TO.N,Net-(D3-K)*%
D28*
X139645000Y-104305000D02*
X139157500Y-103817500D01*
X139645000Y-106817500D02*
X139645000Y-104305000D01*
%TO.N,Net-(D4-K)*%
X139080000Y-83467500D02*
X135620000Y-80007500D01*
X139080000Y-83817500D02*
X139080000Y-83467500D01*
%TD*%
M02*
