%TF.GenerationSoftware,KiCad,Pcbnew,10.0.4*%
%TF.CreationDate,2026-09-02T19:44:03+05:30*%
%TF.ProjectId,Servo Controller 555,53657276-6f20-4436-9f6e-74726f6c6c65,01*%
%TF.SameCoordinates,Original*%
%TF.FileFunction,Drillmap*%
%TF.FilePolarity,Positive*%
%FSLAX45Y45*%
G04 Gerber Fmt 4.5, Leading zero omitted, Abs format (unit mm)*
G04 Created by KiCad (PCBNEW 10.0.4) date 2026-09-02 19:44:03*
%MOMM*%
%LPD*%
G01*
G04 APERTURE LIST*
%ADD10C,0.050000*%
%ADD11C,0.200000*%
%ADD12C,0.320000*%
G04 APERTURE END LIST*
D10*
X11762000Y-7981750D02*
G75*
G02*
X12262000Y-7481750I500000J0D01*
G01*
X11762000Y-11981750D02*
X11762000Y-7981750D01*
X12262000Y-7481750D02*
X17262000Y-7481750D01*
X12262000Y-12481750D02*
G75*
G02*
X11762000Y-11981750I0J500000D01*
G01*
X17262000Y-7481750D02*
G75*
G02*
X17762000Y-7981750I0J-500000D01*
G01*
X17262000Y-12481750D02*
X12262000Y-12481750D01*
X17762000Y-7981750D02*
X17762000Y-11981750D01*
X17762000Y-11981750D02*
G75*
G02*
X17262000Y-12481750I-500000J0D01*
G01*
D11*
D12*
X12102000Y-7821750D02*
X12422000Y-8141750D01*
X12422000Y-7821750D02*
X12102000Y-8141750D01*
X12102000Y-11821750D02*
X12422000Y-12141750D01*
X12422000Y-11821750D02*
X12102000Y-12141750D01*
X17102000Y-7821750D02*
X17422000Y-8141750D01*
X17422000Y-7821750D02*
X17102000Y-8141750D01*
X17102000Y-11821750D02*
X17422000Y-12141750D01*
X17422000Y-11821750D02*
X17102000Y-12141750D01*
D11*
X12020277Y-12795734D02*
X12020277Y-12595734D01*
X12020277Y-12595734D02*
X12067896Y-12595734D01*
X12067896Y-12595734D02*
X12096467Y-12605258D01*
X12096467Y-12605258D02*
X12115515Y-12624305D01*
X12115515Y-12624305D02*
X12125039Y-12643353D01*
X12125039Y-12643353D02*
X12134562Y-12681448D01*
X12134562Y-12681448D02*
X12134562Y-12710019D01*
X12134562Y-12710019D02*
X12125039Y-12748115D01*
X12125039Y-12748115D02*
X12115515Y-12767162D01*
X12115515Y-12767162D02*
X12096467Y-12786210D01*
X12096467Y-12786210D02*
X12067896Y-12795734D01*
X12067896Y-12795734D02*
X12020277Y-12795734D01*
X12220277Y-12795734D02*
X12220277Y-12662400D01*
X12220277Y-12700496D02*
X12229801Y-12681448D01*
X12229801Y-12681448D02*
X12239324Y-12671924D01*
X12239324Y-12671924D02*
X12258372Y-12662400D01*
X12258372Y-12662400D02*
X12277420Y-12662400D01*
X12344086Y-12795734D02*
X12344086Y-12662400D01*
X12344086Y-12595734D02*
X12334562Y-12605258D01*
X12334562Y-12605258D02*
X12344086Y-12614781D01*
X12344086Y-12614781D02*
X12353610Y-12605258D01*
X12353610Y-12605258D02*
X12344086Y-12595734D01*
X12344086Y-12595734D02*
X12344086Y-12614781D01*
X12467896Y-12795734D02*
X12448848Y-12786210D01*
X12448848Y-12786210D02*
X12439324Y-12767162D01*
X12439324Y-12767162D02*
X12439324Y-12595734D01*
X12572658Y-12795734D02*
X12553610Y-12786210D01*
X12553610Y-12786210D02*
X12544086Y-12767162D01*
X12544086Y-12767162D02*
X12544086Y-12595734D01*
X12801229Y-12795734D02*
X12801229Y-12595734D01*
X12801229Y-12595734D02*
X12867896Y-12738591D01*
X12867896Y-12738591D02*
X12934562Y-12595734D01*
X12934562Y-12595734D02*
X12934562Y-12795734D01*
X13115515Y-12795734D02*
X13115515Y-12690972D01*
X13115515Y-12690972D02*
X13105991Y-12671924D01*
X13105991Y-12671924D02*
X13086943Y-12662400D01*
X13086943Y-12662400D02*
X13048848Y-12662400D01*
X13048848Y-12662400D02*
X13029801Y-12671924D01*
X13115515Y-12786210D02*
X13096467Y-12795734D01*
X13096467Y-12795734D02*
X13048848Y-12795734D01*
X13048848Y-12795734D02*
X13029801Y-12786210D01*
X13029801Y-12786210D02*
X13020277Y-12767162D01*
X13020277Y-12767162D02*
X13020277Y-12748115D01*
X13020277Y-12748115D02*
X13029801Y-12729067D01*
X13029801Y-12729067D02*
X13048848Y-12719543D01*
X13048848Y-12719543D02*
X13096467Y-12719543D01*
X13096467Y-12719543D02*
X13115515Y-12710019D01*
X13210753Y-12662400D02*
X13210753Y-12862400D01*
X13210753Y-12671924D02*
X13229801Y-12662400D01*
X13229801Y-12662400D02*
X13267896Y-12662400D01*
X13267896Y-12662400D02*
X13286943Y-12671924D01*
X13286943Y-12671924D02*
X13296467Y-12681448D01*
X13296467Y-12681448D02*
X13305991Y-12700496D01*
X13305991Y-12700496D02*
X13305991Y-12757638D01*
X13305991Y-12757638D02*
X13296467Y-12776686D01*
X13296467Y-12776686D02*
X13286943Y-12786210D01*
X13286943Y-12786210D02*
X13267896Y-12795734D01*
X13267896Y-12795734D02*
X13229801Y-12795734D01*
X13229801Y-12795734D02*
X13210753Y-12786210D01*
X13391705Y-12776686D02*
X13401229Y-12786210D01*
X13401229Y-12786210D02*
X13391705Y-12795734D01*
X13391705Y-12795734D02*
X13382182Y-12786210D01*
X13382182Y-12786210D02*
X13391705Y-12776686D01*
X13391705Y-12776686D02*
X13391705Y-12795734D01*
X13391705Y-12671924D02*
X13401229Y-12681448D01*
X13401229Y-12681448D02*
X13391705Y-12690972D01*
X13391705Y-12690972D02*
X13382182Y-12681448D01*
X13382182Y-12681448D02*
X13391705Y-12671924D01*
X13391705Y-12671924D02*
X13391705Y-12690972D01*
X11559500Y-13024250D02*
X11759500Y-13224250D01*
X11759500Y-13024250D02*
X11559500Y-13224250D01*
X12001229Y-13015734D02*
X12125039Y-13015734D01*
X12125039Y-13015734D02*
X12058372Y-13091924D01*
X12058372Y-13091924D02*
X12086943Y-13091924D01*
X12086943Y-13091924D02*
X12105991Y-13101448D01*
X12105991Y-13101448D02*
X12115515Y-13110972D01*
X12115515Y-13110972D02*
X12125039Y-13130019D01*
X12125039Y-13130019D02*
X12125039Y-13177638D01*
X12125039Y-13177638D02*
X12115515Y-13196686D01*
X12115515Y-13196686D02*
X12105991Y-13206210D01*
X12105991Y-13206210D02*
X12086943Y-13215734D01*
X12086943Y-13215734D02*
X12029801Y-13215734D01*
X12029801Y-13215734D02*
X12010753Y-13206210D01*
X12010753Y-13206210D02*
X12001229Y-13196686D01*
X12210753Y-13196686D02*
X12220277Y-13206210D01*
X12220277Y-13206210D02*
X12210753Y-13215734D01*
X12210753Y-13215734D02*
X12201229Y-13206210D01*
X12201229Y-13206210D02*
X12210753Y-13196686D01*
X12210753Y-13196686D02*
X12210753Y-13215734D01*
X12296467Y-13034781D02*
X12305991Y-13025258D01*
X12305991Y-13025258D02*
X12325039Y-13015734D01*
X12325039Y-13015734D02*
X12372658Y-13015734D01*
X12372658Y-13015734D02*
X12391705Y-13025258D01*
X12391705Y-13025258D02*
X12401229Y-13034781D01*
X12401229Y-13034781D02*
X12410753Y-13053829D01*
X12410753Y-13053829D02*
X12410753Y-13072877D01*
X12410753Y-13072877D02*
X12401229Y-13101448D01*
X12401229Y-13101448D02*
X12286943Y-13215734D01*
X12286943Y-13215734D02*
X12410753Y-13215734D01*
X12534562Y-13015734D02*
X12553610Y-13015734D01*
X12553610Y-13015734D02*
X12572658Y-13025258D01*
X12572658Y-13025258D02*
X12582182Y-13034781D01*
X12582182Y-13034781D02*
X12591705Y-13053829D01*
X12591705Y-13053829D02*
X12601229Y-13091924D01*
X12601229Y-13091924D02*
X12601229Y-13139543D01*
X12601229Y-13139543D02*
X12591705Y-13177638D01*
X12591705Y-13177638D02*
X12582182Y-13196686D01*
X12582182Y-13196686D02*
X12572658Y-13206210D01*
X12572658Y-13206210D02*
X12553610Y-13215734D01*
X12553610Y-13215734D02*
X12534562Y-13215734D01*
X12534562Y-13215734D02*
X12515515Y-13206210D01*
X12515515Y-13206210D02*
X12505991Y-13196686D01*
X12505991Y-13196686D02*
X12496467Y-13177638D01*
X12496467Y-13177638D02*
X12486943Y-13139543D01*
X12486943Y-13139543D02*
X12486943Y-13091924D01*
X12486943Y-13091924D02*
X12496467Y-13053829D01*
X12496467Y-13053829D02*
X12505991Y-13034781D01*
X12505991Y-13034781D02*
X12515515Y-13025258D01*
X12515515Y-13025258D02*
X12534562Y-13015734D01*
X12725039Y-13015734D02*
X12744086Y-13015734D01*
X12744086Y-13015734D02*
X12763134Y-13025258D01*
X12763134Y-13025258D02*
X12772658Y-13034781D01*
X12772658Y-13034781D02*
X12782182Y-13053829D01*
X12782182Y-13053829D02*
X12791705Y-13091924D01*
X12791705Y-13091924D02*
X12791705Y-13139543D01*
X12791705Y-13139543D02*
X12782182Y-13177638D01*
X12782182Y-13177638D02*
X12772658Y-13196686D01*
X12772658Y-13196686D02*
X12763134Y-13206210D01*
X12763134Y-13206210D02*
X12744086Y-13215734D01*
X12744086Y-13215734D02*
X12725039Y-13215734D01*
X12725039Y-13215734D02*
X12705991Y-13206210D01*
X12705991Y-13206210D02*
X12696467Y-13196686D01*
X12696467Y-13196686D02*
X12686943Y-13177638D01*
X12686943Y-13177638D02*
X12677420Y-13139543D01*
X12677420Y-13139543D02*
X12677420Y-13091924D01*
X12677420Y-13091924D02*
X12686943Y-13053829D01*
X12686943Y-13053829D02*
X12696467Y-13034781D01*
X12696467Y-13034781D02*
X12705991Y-13025258D01*
X12705991Y-13025258D02*
X12725039Y-13015734D01*
X12877420Y-13215734D02*
X12877420Y-13082400D01*
X12877420Y-13101448D02*
X12886943Y-13091924D01*
X12886943Y-13091924D02*
X12905991Y-13082400D01*
X12905991Y-13082400D02*
X12934563Y-13082400D01*
X12934563Y-13082400D02*
X12953610Y-13091924D01*
X12953610Y-13091924D02*
X12963134Y-13110972D01*
X12963134Y-13110972D02*
X12963134Y-13215734D01*
X12963134Y-13110972D02*
X12972658Y-13091924D01*
X12972658Y-13091924D02*
X12991705Y-13082400D01*
X12991705Y-13082400D02*
X13020277Y-13082400D01*
X13020277Y-13082400D02*
X13039324Y-13091924D01*
X13039324Y-13091924D02*
X13048848Y-13110972D01*
X13048848Y-13110972D02*
X13048848Y-13215734D01*
X13144086Y-13215734D02*
X13144086Y-13082400D01*
X13144086Y-13101448D02*
X13153610Y-13091924D01*
X13153610Y-13091924D02*
X13172658Y-13082400D01*
X13172658Y-13082400D02*
X13201229Y-13082400D01*
X13201229Y-13082400D02*
X13220277Y-13091924D01*
X13220277Y-13091924D02*
X13229801Y-13110972D01*
X13229801Y-13110972D02*
X13229801Y-13215734D01*
X13229801Y-13110972D02*
X13239324Y-13091924D01*
X13239324Y-13091924D02*
X13258372Y-13082400D01*
X13258372Y-13082400D02*
X13286943Y-13082400D01*
X13286943Y-13082400D02*
X13305991Y-13091924D01*
X13305991Y-13091924D02*
X13315515Y-13110972D01*
X13315515Y-13110972D02*
X13315515Y-13215734D01*
X13705991Y-13006210D02*
X13534563Y-13263353D01*
X13963134Y-13015734D02*
X13982182Y-13015734D01*
X13982182Y-13015734D02*
X14001229Y-13025258D01*
X14001229Y-13025258D02*
X14010753Y-13034781D01*
X14010753Y-13034781D02*
X14020277Y-13053829D01*
X14020277Y-13053829D02*
X14029801Y-13091924D01*
X14029801Y-13091924D02*
X14029801Y-13139543D01*
X14029801Y-13139543D02*
X14020277Y-13177638D01*
X14020277Y-13177638D02*
X14010753Y-13196686D01*
X14010753Y-13196686D02*
X14001229Y-13206210D01*
X14001229Y-13206210D02*
X13982182Y-13215734D01*
X13982182Y-13215734D02*
X13963134Y-13215734D01*
X13963134Y-13215734D02*
X13944086Y-13206210D01*
X13944086Y-13206210D02*
X13934563Y-13196686D01*
X13934563Y-13196686D02*
X13925039Y-13177638D01*
X13925039Y-13177638D02*
X13915515Y-13139543D01*
X13915515Y-13139543D02*
X13915515Y-13091924D01*
X13915515Y-13091924D02*
X13925039Y-13053829D01*
X13925039Y-13053829D02*
X13934563Y-13034781D01*
X13934563Y-13034781D02*
X13944086Y-13025258D01*
X13944086Y-13025258D02*
X13963134Y-13015734D01*
X14115515Y-13196686D02*
X14125039Y-13206210D01*
X14125039Y-13206210D02*
X14115515Y-13215734D01*
X14115515Y-13215734D02*
X14105991Y-13206210D01*
X14105991Y-13206210D02*
X14115515Y-13196686D01*
X14115515Y-13196686D02*
X14115515Y-13215734D01*
X14315515Y-13215734D02*
X14201229Y-13215734D01*
X14258372Y-13215734D02*
X14258372Y-13015734D01*
X14258372Y-13015734D02*
X14239325Y-13044305D01*
X14239325Y-13044305D02*
X14220277Y-13063353D01*
X14220277Y-13063353D02*
X14201229Y-13072877D01*
X14391706Y-13034781D02*
X14401229Y-13025258D01*
X14401229Y-13025258D02*
X14420277Y-13015734D01*
X14420277Y-13015734D02*
X14467896Y-13015734D01*
X14467896Y-13015734D02*
X14486944Y-13025258D01*
X14486944Y-13025258D02*
X14496467Y-13034781D01*
X14496467Y-13034781D02*
X14505991Y-13053829D01*
X14505991Y-13053829D02*
X14505991Y-13072877D01*
X14505991Y-13072877D02*
X14496467Y-13101448D01*
X14496467Y-13101448D02*
X14382182Y-13215734D01*
X14382182Y-13215734D02*
X14505991Y-13215734D01*
X14677420Y-13015734D02*
X14639325Y-13015734D01*
X14639325Y-13015734D02*
X14620277Y-13025258D01*
X14620277Y-13025258D02*
X14610753Y-13034781D01*
X14610753Y-13034781D02*
X14591706Y-13063353D01*
X14591706Y-13063353D02*
X14582182Y-13101448D01*
X14582182Y-13101448D02*
X14582182Y-13177638D01*
X14582182Y-13177638D02*
X14591706Y-13196686D01*
X14591706Y-13196686D02*
X14601229Y-13206210D01*
X14601229Y-13206210D02*
X14620277Y-13215734D01*
X14620277Y-13215734D02*
X14658372Y-13215734D01*
X14658372Y-13215734D02*
X14677420Y-13206210D01*
X14677420Y-13206210D02*
X14686944Y-13196686D01*
X14686944Y-13196686D02*
X14696467Y-13177638D01*
X14696467Y-13177638D02*
X14696467Y-13130019D01*
X14696467Y-13130019D02*
X14686944Y-13110972D01*
X14686944Y-13110972D02*
X14677420Y-13101448D01*
X14677420Y-13101448D02*
X14658372Y-13091924D01*
X14658372Y-13091924D02*
X14620277Y-13091924D01*
X14620277Y-13091924D02*
X14601229Y-13101448D01*
X14601229Y-13101448D02*
X14591706Y-13110972D01*
X14591706Y-13110972D02*
X14582182Y-13130019D01*
X14820277Y-13015734D02*
X14839325Y-13015734D01*
X14839325Y-13015734D02*
X14858372Y-13025258D01*
X14858372Y-13025258D02*
X14867896Y-13034781D01*
X14867896Y-13034781D02*
X14877420Y-13053829D01*
X14877420Y-13053829D02*
X14886944Y-13091924D01*
X14886944Y-13091924D02*
X14886944Y-13139543D01*
X14886944Y-13139543D02*
X14877420Y-13177638D01*
X14877420Y-13177638D02*
X14867896Y-13196686D01*
X14867896Y-13196686D02*
X14858372Y-13206210D01*
X14858372Y-13206210D02*
X14839325Y-13215734D01*
X14839325Y-13215734D02*
X14820277Y-13215734D01*
X14820277Y-13215734D02*
X14801229Y-13206210D01*
X14801229Y-13206210D02*
X14791706Y-13196686D01*
X14791706Y-13196686D02*
X14782182Y-13177638D01*
X14782182Y-13177638D02*
X14772658Y-13139543D01*
X14772658Y-13139543D02*
X14772658Y-13091924D01*
X14772658Y-13091924D02*
X14782182Y-13053829D01*
X14782182Y-13053829D02*
X14791706Y-13034781D01*
X14791706Y-13034781D02*
X14801229Y-13025258D01*
X14801229Y-13025258D02*
X14820277Y-13015734D01*
X14963134Y-13015734D02*
X14963134Y-13053829D01*
X15039325Y-13015734D02*
X15039325Y-13053829D01*
X15334563Y-13291924D02*
X15325039Y-13282400D01*
X15325039Y-13282400D02*
X15305991Y-13253829D01*
X15305991Y-13253829D02*
X15296468Y-13234781D01*
X15296468Y-13234781D02*
X15286944Y-13206210D01*
X15286944Y-13206210D02*
X15277420Y-13158591D01*
X15277420Y-13158591D02*
X15277420Y-13120496D01*
X15277420Y-13120496D02*
X15286944Y-13072877D01*
X15286944Y-13072877D02*
X15296468Y-13044305D01*
X15296468Y-13044305D02*
X15305991Y-13025258D01*
X15305991Y-13025258D02*
X15325039Y-12996686D01*
X15325039Y-12996686D02*
X15334563Y-12987162D01*
X15496468Y-13082400D02*
X15496468Y-13215734D01*
X15448848Y-13006210D02*
X15401229Y-13149067D01*
X15401229Y-13149067D02*
X15525039Y-13149067D01*
X15753610Y-13215734D02*
X15753610Y-13015734D01*
X15839325Y-13215734D02*
X15839325Y-13110972D01*
X15839325Y-13110972D02*
X15829801Y-13091924D01*
X15829801Y-13091924D02*
X15810753Y-13082400D01*
X15810753Y-13082400D02*
X15782182Y-13082400D01*
X15782182Y-13082400D02*
X15763134Y-13091924D01*
X15763134Y-13091924D02*
X15753610Y-13101448D01*
X15963134Y-13215734D02*
X15944087Y-13206210D01*
X15944087Y-13206210D02*
X15934563Y-13196686D01*
X15934563Y-13196686D02*
X15925039Y-13177638D01*
X15925039Y-13177638D02*
X15925039Y-13120496D01*
X15925039Y-13120496D02*
X15934563Y-13101448D01*
X15934563Y-13101448D02*
X15944087Y-13091924D01*
X15944087Y-13091924D02*
X15963134Y-13082400D01*
X15963134Y-13082400D02*
X15991706Y-13082400D01*
X15991706Y-13082400D02*
X16010753Y-13091924D01*
X16010753Y-13091924D02*
X16020277Y-13101448D01*
X16020277Y-13101448D02*
X16029801Y-13120496D01*
X16029801Y-13120496D02*
X16029801Y-13177638D01*
X16029801Y-13177638D02*
X16020277Y-13196686D01*
X16020277Y-13196686D02*
X16010753Y-13206210D01*
X16010753Y-13206210D02*
X15991706Y-13215734D01*
X15991706Y-13215734D02*
X15963134Y-13215734D01*
X16144087Y-13215734D02*
X16125039Y-13206210D01*
X16125039Y-13206210D02*
X16115515Y-13187162D01*
X16115515Y-13187162D02*
X16115515Y-13015734D01*
X16296468Y-13206210D02*
X16277420Y-13215734D01*
X16277420Y-13215734D02*
X16239325Y-13215734D01*
X16239325Y-13215734D02*
X16220277Y-13206210D01*
X16220277Y-13206210D02*
X16210753Y-13187162D01*
X16210753Y-13187162D02*
X16210753Y-13110972D01*
X16210753Y-13110972D02*
X16220277Y-13091924D01*
X16220277Y-13091924D02*
X16239325Y-13082400D01*
X16239325Y-13082400D02*
X16277420Y-13082400D01*
X16277420Y-13082400D02*
X16296468Y-13091924D01*
X16296468Y-13091924D02*
X16305991Y-13110972D01*
X16305991Y-13110972D02*
X16305991Y-13130019D01*
X16305991Y-13130019D02*
X16210753Y-13149067D01*
X16382182Y-13206210D02*
X16401230Y-13215734D01*
X16401230Y-13215734D02*
X16439325Y-13215734D01*
X16439325Y-13215734D02*
X16458372Y-13206210D01*
X16458372Y-13206210D02*
X16467896Y-13187162D01*
X16467896Y-13187162D02*
X16467896Y-13177638D01*
X16467896Y-13177638D02*
X16458372Y-13158591D01*
X16458372Y-13158591D02*
X16439325Y-13149067D01*
X16439325Y-13149067D02*
X16410753Y-13149067D01*
X16410753Y-13149067D02*
X16391706Y-13139543D01*
X16391706Y-13139543D02*
X16382182Y-13120496D01*
X16382182Y-13120496D02*
X16382182Y-13110972D01*
X16382182Y-13110972D02*
X16391706Y-13091924D01*
X16391706Y-13091924D02*
X16410753Y-13082400D01*
X16410753Y-13082400D02*
X16439325Y-13082400D01*
X16439325Y-13082400D02*
X16458372Y-13091924D01*
X16534563Y-13291924D02*
X16544087Y-13282400D01*
X16544087Y-13282400D02*
X16563134Y-13253829D01*
X16563134Y-13253829D02*
X16572658Y-13234781D01*
X16572658Y-13234781D02*
X16582182Y-13206210D01*
X16582182Y-13206210D02*
X16591706Y-13158591D01*
X16591706Y-13158591D02*
X16591706Y-13120496D01*
X16591706Y-13120496D02*
X16582182Y-13072877D01*
X16582182Y-13072877D02*
X16572658Y-13044305D01*
X16572658Y-13044305D02*
X16563134Y-13025258D01*
X16563134Y-13025258D02*
X16544087Y-12996686D01*
X16544087Y-12996686D02*
X16534563Y-12987162D01*
X16896468Y-13291924D02*
X16886944Y-13282400D01*
X16886944Y-13282400D02*
X16867896Y-13253829D01*
X16867896Y-13253829D02*
X16858373Y-13234781D01*
X16858373Y-13234781D02*
X16848849Y-13206210D01*
X16848849Y-13206210D02*
X16839325Y-13158591D01*
X16839325Y-13158591D02*
X16839325Y-13120496D01*
X16839325Y-13120496D02*
X16848849Y-13072877D01*
X16848849Y-13072877D02*
X16858373Y-13044305D01*
X16858373Y-13044305D02*
X16867896Y-13025258D01*
X16867896Y-13025258D02*
X16886944Y-12996686D01*
X16886944Y-12996686D02*
X16896468Y-12987162D01*
X16972658Y-13082400D02*
X16972658Y-13215734D01*
X16972658Y-13101448D02*
X16982182Y-13091924D01*
X16982182Y-13091924D02*
X17001230Y-13082400D01*
X17001230Y-13082400D02*
X17029801Y-13082400D01*
X17029801Y-13082400D02*
X17048849Y-13091924D01*
X17048849Y-13091924D02*
X17058373Y-13110972D01*
X17058373Y-13110972D02*
X17058373Y-13215734D01*
X17182182Y-13215734D02*
X17163134Y-13206210D01*
X17163134Y-13206210D02*
X17153611Y-13196686D01*
X17153611Y-13196686D02*
X17144087Y-13177638D01*
X17144087Y-13177638D02*
X17144087Y-13120496D01*
X17144087Y-13120496D02*
X17153611Y-13101448D01*
X17153611Y-13101448D02*
X17163134Y-13091924D01*
X17163134Y-13091924D02*
X17182182Y-13082400D01*
X17182182Y-13082400D02*
X17210754Y-13082400D01*
X17210754Y-13082400D02*
X17229801Y-13091924D01*
X17229801Y-13091924D02*
X17239325Y-13101448D01*
X17239325Y-13101448D02*
X17248849Y-13120496D01*
X17248849Y-13120496D02*
X17248849Y-13177638D01*
X17248849Y-13177638D02*
X17239325Y-13196686D01*
X17239325Y-13196686D02*
X17229801Y-13206210D01*
X17229801Y-13206210D02*
X17210754Y-13215734D01*
X17210754Y-13215734D02*
X17182182Y-13215734D01*
X17305992Y-13082400D02*
X17382182Y-13082400D01*
X17334563Y-13015734D02*
X17334563Y-13187162D01*
X17334563Y-13187162D02*
X17344087Y-13206210D01*
X17344087Y-13206210D02*
X17363134Y-13215734D01*
X17363134Y-13215734D02*
X17382182Y-13215734D01*
X17601230Y-13082400D02*
X17601230Y-13282400D01*
X17601230Y-13091924D02*
X17620277Y-13082400D01*
X17620277Y-13082400D02*
X17658373Y-13082400D01*
X17658373Y-13082400D02*
X17677420Y-13091924D01*
X17677420Y-13091924D02*
X17686944Y-13101448D01*
X17686944Y-13101448D02*
X17696468Y-13120496D01*
X17696468Y-13120496D02*
X17696468Y-13177638D01*
X17696468Y-13177638D02*
X17686944Y-13196686D01*
X17686944Y-13196686D02*
X17677420Y-13206210D01*
X17677420Y-13206210D02*
X17658373Y-13215734D01*
X17658373Y-13215734D02*
X17620277Y-13215734D01*
X17620277Y-13215734D02*
X17601230Y-13206210D01*
X17810754Y-13215734D02*
X17791706Y-13206210D01*
X17791706Y-13206210D02*
X17782182Y-13187162D01*
X17782182Y-13187162D02*
X17782182Y-13015734D01*
X17972658Y-13215734D02*
X17972658Y-13110972D01*
X17972658Y-13110972D02*
X17963135Y-13091924D01*
X17963135Y-13091924D02*
X17944087Y-13082400D01*
X17944087Y-13082400D02*
X17905992Y-13082400D01*
X17905992Y-13082400D02*
X17886944Y-13091924D01*
X17972658Y-13206210D02*
X17953611Y-13215734D01*
X17953611Y-13215734D02*
X17905992Y-13215734D01*
X17905992Y-13215734D02*
X17886944Y-13206210D01*
X17886944Y-13206210D02*
X17877420Y-13187162D01*
X17877420Y-13187162D02*
X17877420Y-13168115D01*
X17877420Y-13168115D02*
X17886944Y-13149067D01*
X17886944Y-13149067D02*
X17905992Y-13139543D01*
X17905992Y-13139543D02*
X17953611Y-13139543D01*
X17953611Y-13139543D02*
X17972658Y-13130019D01*
X18039325Y-13082400D02*
X18115515Y-13082400D01*
X18067896Y-13015734D02*
X18067896Y-13187162D01*
X18067896Y-13187162D02*
X18077420Y-13206210D01*
X18077420Y-13206210D02*
X18096468Y-13215734D01*
X18096468Y-13215734D02*
X18115515Y-13215734D01*
X18258373Y-13206210D02*
X18239325Y-13215734D01*
X18239325Y-13215734D02*
X18201230Y-13215734D01*
X18201230Y-13215734D02*
X18182182Y-13206210D01*
X18182182Y-13206210D02*
X18172658Y-13187162D01*
X18172658Y-13187162D02*
X18172658Y-13110972D01*
X18172658Y-13110972D02*
X18182182Y-13091924D01*
X18182182Y-13091924D02*
X18201230Y-13082400D01*
X18201230Y-13082400D02*
X18239325Y-13082400D01*
X18239325Y-13082400D02*
X18258373Y-13091924D01*
X18258373Y-13091924D02*
X18267896Y-13110972D01*
X18267896Y-13110972D02*
X18267896Y-13130019D01*
X18267896Y-13130019D02*
X18172658Y-13149067D01*
X18439325Y-13215734D02*
X18439325Y-13015734D01*
X18439325Y-13206210D02*
X18420277Y-13215734D01*
X18420277Y-13215734D02*
X18382182Y-13215734D01*
X18382182Y-13215734D02*
X18363135Y-13206210D01*
X18363135Y-13206210D02*
X18353611Y-13196686D01*
X18353611Y-13196686D02*
X18344087Y-13177638D01*
X18344087Y-13177638D02*
X18344087Y-13120496D01*
X18344087Y-13120496D02*
X18353611Y-13101448D01*
X18353611Y-13101448D02*
X18363135Y-13091924D01*
X18363135Y-13091924D02*
X18382182Y-13082400D01*
X18382182Y-13082400D02*
X18420277Y-13082400D01*
X18420277Y-13082400D02*
X18439325Y-13091924D01*
X18515516Y-13291924D02*
X18525039Y-13282400D01*
X18525039Y-13282400D02*
X18544087Y-13253829D01*
X18544087Y-13253829D02*
X18553611Y-13234781D01*
X18553611Y-13234781D02*
X18563135Y-13206210D01*
X18563135Y-13206210D02*
X18572658Y-13158591D01*
X18572658Y-13158591D02*
X18572658Y-13120496D01*
X18572658Y-13120496D02*
X18563135Y-13072877D01*
X18563135Y-13072877D02*
X18553611Y-13044305D01*
X18553611Y-13044305D02*
X18544087Y-13025258D01*
X18544087Y-13025258D02*
X18525039Y-12996686D01*
X18525039Y-12996686D02*
X18515516Y-12987162D01*
M02*
