%TF.GenerationSoftware,KiCad,Pcbnew,10.0.4*%
%TF.CreationDate,2026-09-02T19:44:03+05:30*%
%TF.ProjectId,Servo Controller 555,53657276-6f20-4436-9f6e-74726f6c6c65,01*%
%TF.SameCoordinates,Original*%
%TF.FileFunction,Drillmap*%
%TF.FilePolarity,Positive*%
%FSLAX45Y45*%
G04 Gerber Fmt 4.5, Leading zero omitted, Abs format (unit mm)*
G04 Created by KiCad (PCBNEW 10.0.4) date 2026-09-02 19:44:03*
%MOMM*%
%LPD*%
G01*
G04 APERTURE LIST*
%ADD10C,0.050000*%
%ADD11C,0.200000*%
%ADD12C,0.100000*%
%ADD13C,0.130000*%
%ADD14C,0.220000*%
G04 APERTURE END LIST*
D10*
X11762000Y-7981750D02*
G75*
G02*
X12262000Y-7481750I500000J0D01*
G01*
X11762000Y-11981750D02*
X11762000Y-7981750D01*
X12262000Y-7481750D02*
X17262000Y-7481750D01*
X12262000Y-12481750D02*
G75*
G02*
X11762000Y-11981750I0J500000D01*
G01*
X17262000Y-7481750D02*
G75*
G02*
X17762000Y-7981750I0J-500000D01*
G01*
X17262000Y-12481750D02*
X12262000Y-12481750D01*
X17762000Y-7981750D02*
X17762000Y-11981750D01*
X17762000Y-11981750D02*
G75*
G02*
X17262000Y-12481750I-500000J0D01*
G01*
D11*
D12*
X14445000Y-10365000D02*
X14475000Y-10395000D01*
X14475000Y-10365000D02*
X14445000Y-10395000D01*
X13597000Y-8000750D02*
G75*
G02*
X13527000Y-8000750I-35000J0D01*
G01*
X13527000Y-8000750D02*
G75*
G02*
X13597000Y-8000750I35000J0D01*
G01*
X13597000Y-8762750D02*
G75*
G02*
X13527000Y-8762750I-35000J0D01*
G01*
X13527000Y-8762750D02*
G75*
G02*
X13597000Y-8762750I35000J0D01*
G01*
X15935000Y-10781750D02*
G75*
G02*
X15865000Y-10781750I-35000J0D01*
G01*
X15865000Y-10781750D02*
G75*
G02*
X15935000Y-10781750I35000J0D01*
G01*
X15935000Y-11081750D02*
G75*
G02*
X15865000Y-11081750I-35000J0D01*
G01*
X15865000Y-11081750D02*
G75*
G02*
X15935000Y-11081750I35000J0D01*
G01*
X16697000Y-10781750D02*
G75*
G02*
X16627000Y-10781750I-35000J0D01*
G01*
X16627000Y-10781750D02*
G75*
G02*
X16697000Y-10781750I35000J0D01*
G01*
X16697000Y-11081750D02*
G75*
G02*
X16627000Y-11081750I-35000J0D01*
G01*
X16627000Y-11081750D02*
G75*
G02*
X16697000Y-11081750I35000J0D01*
G01*
X15181500Y-9060750D02*
X15181500Y-9140750D01*
X15141500Y-9100750D02*
X15221500Y-9100750D01*
X15181500Y-9310750D02*
X15181500Y-9390750D01*
X15141500Y-9350750D02*
X15221500Y-9350750D01*
X15481500Y-9060750D02*
X15481500Y-9140750D01*
X15441500Y-9100750D02*
X15521500Y-9100750D01*
X15481500Y-9314750D02*
X15481500Y-9394750D01*
X15441500Y-9354750D02*
X15521500Y-9354750D01*
X15481500Y-9568750D02*
X15481500Y-9648750D01*
X15441500Y-9608750D02*
X15521500Y-9608750D01*
X15481500Y-9822750D02*
X15481500Y-9902750D01*
X15441500Y-9862750D02*
X15521500Y-9862750D01*
X15762000Y-8641750D02*
X15762000Y-8721750D01*
X15722000Y-8681750D02*
X15802000Y-8681750D01*
X15900000Y-10441750D02*
X15900000Y-10521750D01*
X15860000Y-10481750D02*
X15940000Y-10481750D01*
X16012000Y-8641750D02*
X16012000Y-8721750D01*
X15972000Y-8681750D02*
X16052000Y-8681750D01*
X16243500Y-9060750D02*
X16243500Y-9140750D01*
X16203500Y-9100750D02*
X16283500Y-9100750D01*
X16243500Y-9314750D02*
X16243500Y-9394750D01*
X16203500Y-9354750D02*
X16283500Y-9354750D01*
X16243500Y-9568750D02*
X16243500Y-9648750D01*
X16203500Y-9608750D02*
X16283500Y-9608750D01*
X16243500Y-9822750D02*
X16243500Y-9902750D01*
X16203500Y-9862750D02*
X16283500Y-9862750D01*
X16662000Y-10441750D02*
X16662000Y-10521750D01*
X16622000Y-10481750D02*
X16702000Y-10481750D01*
X13939820Y-8413570D02*
X13939820Y-8349930D01*
X13876180Y-8349930D01*
X13876180Y-8413570D01*
X13939820Y-8413570D01*
X14193820Y-8413570D02*
X14193820Y-8349930D01*
X14130180Y-8349930D01*
X14130180Y-8413570D01*
X14193820Y-8413570D01*
X14418250Y-12331750D02*
X14468250Y-12281750D01*
X14418250Y-12231750D01*
X14368250Y-12281750D01*
X14418250Y-12331750D01*
X14668250Y-12331750D02*
X14718250Y-12281750D01*
X14668250Y-12231750D01*
X14618250Y-12281750D01*
X14668250Y-12331750D01*
X14918250Y-12331750D02*
X14968250Y-12281750D01*
X14918250Y-12231750D01*
X14868250Y-12281750D01*
X14918250Y-12331750D01*
X17100000Y-9577750D02*
X17150000Y-9527750D01*
X17100000Y-9477750D01*
X17050000Y-9527750D01*
X17100000Y-9577750D01*
X17100000Y-9831750D02*
X17150000Y-9781750D01*
X17100000Y-9731750D01*
X17050000Y-9781750D01*
X17100000Y-9831750D01*
X17100000Y-10085750D02*
X17150000Y-10035750D01*
X17100000Y-9985750D01*
X17050000Y-10035750D01*
X17100000Y-10085750D01*
D13*
X12279750Y-9573000D02*
X12409750Y-9703000D01*
X12409750Y-9573000D02*
X12279750Y-9703000D01*
X12409750Y-9638000D02*
G75*
G02*
X12279750Y-9638000I-65000J0D01*
G01*
X12279750Y-9638000D02*
G75*
G02*
X12409750Y-9638000I65000J0D01*
G01*
X12279750Y-10073000D02*
X12409750Y-10203000D01*
X12409750Y-10073000D02*
X12279750Y-10203000D01*
X12409750Y-10138000D02*
G75*
G02*
X12279750Y-10138000I-65000J0D01*
G01*
X12279750Y-10138000D02*
G75*
G02*
X12409750Y-10138000I65000J0D01*
G01*
D14*
X14118250Y-11471750D02*
X14338250Y-11691750D01*
X14338250Y-11471750D02*
X14118250Y-11691750D01*
X14228250Y-11471750D02*
X14228250Y-11691750D01*
X14118250Y-11581750D02*
X14338250Y-11581750D01*
X14998250Y-11471750D02*
X15218250Y-11691750D01*
X15218250Y-11471750D02*
X14998250Y-11691750D01*
X15108250Y-11471750D02*
X15108250Y-11691750D01*
X14998250Y-11581750D02*
X15218250Y-11581750D01*
D11*
X12020277Y-12795734D02*
X12020277Y-12595734D01*
X12020277Y-12595734D02*
X12067896Y-12595734D01*
X12067896Y-12595734D02*
X12096467Y-12605258D01*
X12096467Y-12605258D02*
X12115515Y-12624305D01*
X12115515Y-12624305D02*
X12125039Y-12643353D01*
X12125039Y-12643353D02*
X12134562Y-12681448D01*
X12134562Y-12681448D02*
X12134562Y-12710019D01*
X12134562Y-12710019D02*
X12125039Y-12748115D01*
X12125039Y-12748115D02*
X12115515Y-12767162D01*
X12115515Y-12767162D02*
X12096467Y-12786210D01*
X12096467Y-12786210D02*
X12067896Y-12795734D01*
X12067896Y-12795734D02*
X12020277Y-12795734D01*
X12220277Y-12795734D02*
X12220277Y-12662400D01*
X12220277Y-12700496D02*
X12229801Y-12681448D01*
X12229801Y-12681448D02*
X12239324Y-12671924D01*
X12239324Y-12671924D02*
X12258372Y-12662400D01*
X12258372Y-12662400D02*
X12277420Y-12662400D01*
X12344086Y-12795734D02*
X12344086Y-12662400D01*
X12344086Y-12595734D02*
X12334562Y-12605258D01*
X12334562Y-12605258D02*
X12344086Y-12614781D01*
X12344086Y-12614781D02*
X12353610Y-12605258D01*
X12353610Y-12605258D02*
X12344086Y-12595734D01*
X12344086Y-12595734D02*
X12344086Y-12614781D01*
X12467896Y-12795734D02*
X12448848Y-12786210D01*
X12448848Y-12786210D02*
X12439324Y-12767162D01*
X12439324Y-12767162D02*
X12439324Y-12595734D01*
X12572658Y-12795734D02*
X12553610Y-12786210D01*
X12553610Y-12786210D02*
X12544086Y-12767162D01*
X12544086Y-12767162D02*
X12544086Y-12595734D01*
X12801229Y-12795734D02*
X12801229Y-12595734D01*
X12801229Y-12595734D02*
X12867896Y-12738591D01*
X12867896Y-12738591D02*
X12934562Y-12595734D01*
X12934562Y-12595734D02*
X12934562Y-12795734D01*
X13115515Y-12795734D02*
X13115515Y-12690972D01*
X13115515Y-12690972D02*
X13105991Y-12671924D01*
X13105991Y-12671924D02*
X13086943Y-12662400D01*
X13086943Y-12662400D02*
X13048848Y-12662400D01*
X13048848Y-12662400D02*
X13029801Y-12671924D01*
X13115515Y-12786210D02*
X13096467Y-12795734D01*
X13096467Y-12795734D02*
X13048848Y-12795734D01*
X13048848Y-12795734D02*
X13029801Y-12786210D01*
X13029801Y-12786210D02*
X13020277Y-12767162D01*
X13020277Y-12767162D02*
X13020277Y-12748115D01*
X13020277Y-12748115D02*
X13029801Y-12729067D01*
X13029801Y-12729067D02*
X13048848Y-12719543D01*
X13048848Y-12719543D02*
X13096467Y-12719543D01*
X13096467Y-12719543D02*
X13115515Y-12710019D01*
X13210753Y-12662400D02*
X13210753Y-12862400D01*
X13210753Y-12671924D02*
X13229801Y-12662400D01*
X13229801Y-12662400D02*
X13267896Y-12662400D01*
X13267896Y-12662400D02*
X13286943Y-12671924D01*
X13286943Y-12671924D02*
X13296467Y-12681448D01*
X13296467Y-12681448D02*
X13305991Y-12700496D01*
X13305991Y-12700496D02*
X13305991Y-12757638D01*
X13305991Y-12757638D02*
X13296467Y-12776686D01*
X13296467Y-12776686D02*
X13286943Y-12786210D01*
X13286943Y-12786210D02*
X13267896Y-12795734D01*
X13267896Y-12795734D02*
X13229801Y-12795734D01*
X13229801Y-12795734D02*
X13210753Y-12786210D01*
X13391705Y-12776686D02*
X13401229Y-12786210D01*
X13401229Y-12786210D02*
X13391705Y-12795734D01*
X13391705Y-12795734D02*
X13382182Y-12786210D01*
X13382182Y-12786210D02*
X13391705Y-12776686D01*
X13391705Y-12776686D02*
X13391705Y-12795734D01*
X13391705Y-12671924D02*
X13401229Y-12681448D01*
X13401229Y-12681448D02*
X13391705Y-12690972D01*
X13391705Y-12690972D02*
X13382182Y-12681448D01*
X13382182Y-12681448D02*
X13391705Y-12671924D01*
X13391705Y-12671924D02*
X13391705Y-12690972D01*
D12*
X11729500Y-13109250D02*
X11759500Y-13139250D01*
X11759500Y-13109250D02*
X11729500Y-13139250D01*
D11*
X12058372Y-13015734D02*
X12077420Y-13015734D01*
X12077420Y-13015734D02*
X12096467Y-13025258D01*
X12096467Y-13025258D02*
X12105991Y-13034781D01*
X12105991Y-13034781D02*
X12115515Y-13053829D01*
X12115515Y-13053829D02*
X12125039Y-13091924D01*
X12125039Y-13091924D02*
X12125039Y-13139543D01*
X12125039Y-13139543D02*
X12115515Y-13177638D01*
X12115515Y-13177638D02*
X12105991Y-13196686D01*
X12105991Y-13196686D02*
X12096467Y-13206210D01*
X12096467Y-13206210D02*
X12077420Y-13215734D01*
X12077420Y-13215734D02*
X12058372Y-13215734D01*
X12058372Y-13215734D02*
X12039324Y-13206210D01*
X12039324Y-13206210D02*
X12029801Y-13196686D01*
X12029801Y-13196686D02*
X12020277Y-13177638D01*
X12020277Y-13177638D02*
X12010753Y-13139543D01*
X12010753Y-13139543D02*
X12010753Y-13091924D01*
X12010753Y-13091924D02*
X12020277Y-13053829D01*
X12020277Y-13053829D02*
X12029801Y-13034781D01*
X12029801Y-13034781D02*
X12039324Y-13025258D01*
X12039324Y-13025258D02*
X12058372Y-13015734D01*
X12210753Y-13196686D02*
X12220277Y-13206210D01*
X12220277Y-13206210D02*
X12210753Y-13215734D01*
X12210753Y-13215734D02*
X12201229Y-13206210D01*
X12201229Y-13206210D02*
X12210753Y-13196686D01*
X12210753Y-13196686D02*
X12210753Y-13215734D01*
X12286943Y-13015734D02*
X12410753Y-13015734D01*
X12410753Y-13015734D02*
X12344086Y-13091924D01*
X12344086Y-13091924D02*
X12372658Y-13091924D01*
X12372658Y-13091924D02*
X12391705Y-13101448D01*
X12391705Y-13101448D02*
X12401229Y-13110972D01*
X12401229Y-13110972D02*
X12410753Y-13130019D01*
X12410753Y-13130019D02*
X12410753Y-13177638D01*
X12410753Y-13177638D02*
X12401229Y-13196686D01*
X12401229Y-13196686D02*
X12391705Y-13206210D01*
X12391705Y-13206210D02*
X12372658Y-13215734D01*
X12372658Y-13215734D02*
X12315515Y-13215734D01*
X12315515Y-13215734D02*
X12296467Y-13206210D01*
X12296467Y-13206210D02*
X12286943Y-13196686D01*
X12534562Y-13015734D02*
X12553610Y-13015734D01*
X12553610Y-13015734D02*
X12572658Y-13025258D01*
X12572658Y-13025258D02*
X12582182Y-13034781D01*
X12582182Y-13034781D02*
X12591705Y-13053829D01*
X12591705Y-13053829D02*
X12601229Y-13091924D01*
X12601229Y-13091924D02*
X12601229Y-13139543D01*
X12601229Y-13139543D02*
X12591705Y-13177638D01*
X12591705Y-13177638D02*
X12582182Y-13196686D01*
X12582182Y-13196686D02*
X12572658Y-13206210D01*
X12572658Y-13206210D02*
X12553610Y-13215734D01*
X12553610Y-13215734D02*
X12534562Y-13215734D01*
X12534562Y-13215734D02*
X12515515Y-13206210D01*
X12515515Y-13206210D02*
X12505991Y-13196686D01*
X12505991Y-13196686D02*
X12496467Y-13177638D01*
X12496467Y-13177638D02*
X12486943Y-13139543D01*
X12486943Y-13139543D02*
X12486943Y-13091924D01*
X12486943Y-13091924D02*
X12496467Y-13053829D01*
X12496467Y-13053829D02*
X12505991Y-13034781D01*
X12505991Y-13034781D02*
X12515515Y-13025258D01*
X12515515Y-13025258D02*
X12534562Y-13015734D01*
X12725039Y-13015734D02*
X12744086Y-13015734D01*
X12744086Y-13015734D02*
X12763134Y-13025258D01*
X12763134Y-13025258D02*
X12772658Y-13034781D01*
X12772658Y-13034781D02*
X12782182Y-13053829D01*
X12782182Y-13053829D02*
X12791705Y-13091924D01*
X12791705Y-13091924D02*
X12791705Y-13139543D01*
X12791705Y-13139543D02*
X12782182Y-13177638D01*
X12782182Y-13177638D02*
X12772658Y-13196686D01*
X12772658Y-13196686D02*
X12763134Y-13206210D01*
X12763134Y-13206210D02*
X12744086Y-13215734D01*
X12744086Y-13215734D02*
X12725039Y-13215734D01*
X12725039Y-13215734D02*
X12705991Y-13206210D01*
X12705991Y-13206210D02*
X12696467Y-13196686D01*
X12696467Y-13196686D02*
X12686943Y-13177638D01*
X12686943Y-13177638D02*
X12677420Y-13139543D01*
X12677420Y-13139543D02*
X12677420Y-13091924D01*
X12677420Y-13091924D02*
X12686943Y-13053829D01*
X12686943Y-13053829D02*
X12696467Y-13034781D01*
X12696467Y-13034781D02*
X12705991Y-13025258D01*
X12705991Y-13025258D02*
X12725039Y-13015734D01*
X12877420Y-13215734D02*
X12877420Y-13082400D01*
X12877420Y-13101448D02*
X12886943Y-13091924D01*
X12886943Y-13091924D02*
X12905991Y-13082400D01*
X12905991Y-13082400D02*
X12934563Y-13082400D01*
X12934563Y-13082400D02*
X12953610Y-13091924D01*
X12953610Y-13091924D02*
X12963134Y-13110972D01*
X12963134Y-13110972D02*
X12963134Y-13215734D01*
X12963134Y-13110972D02*
X12972658Y-13091924D01*
X12972658Y-13091924D02*
X12991705Y-13082400D01*
X12991705Y-13082400D02*
X13020277Y-13082400D01*
X13020277Y-13082400D02*
X13039324Y-13091924D01*
X13039324Y-13091924D02*
X13048848Y-13110972D01*
X13048848Y-13110972D02*
X13048848Y-13215734D01*
X13144086Y-13215734D02*
X13144086Y-13082400D01*
X13144086Y-13101448D02*
X13153610Y-13091924D01*
X13153610Y-13091924D02*
X13172658Y-13082400D01*
X13172658Y-13082400D02*
X13201229Y-13082400D01*
X13201229Y-13082400D02*
X13220277Y-13091924D01*
X13220277Y-13091924D02*
X13229801Y-13110972D01*
X13229801Y-13110972D02*
X13229801Y-13215734D01*
X13229801Y-13110972D02*
X13239324Y-13091924D01*
X13239324Y-13091924D02*
X13258372Y-13082400D01*
X13258372Y-13082400D02*
X13286943Y-13082400D01*
X13286943Y-13082400D02*
X13305991Y-13091924D01*
X13305991Y-13091924D02*
X13315515Y-13110972D01*
X13315515Y-13110972D02*
X13315515Y-13215734D01*
X13705991Y-13006210D02*
X13534563Y-13263353D01*
X13963134Y-13015734D02*
X13982182Y-13015734D01*
X13982182Y-13015734D02*
X14001229Y-13025258D01*
X14001229Y-13025258D02*
X14010753Y-13034781D01*
X14010753Y-13034781D02*
X14020277Y-13053829D01*
X14020277Y-13053829D02*
X14029801Y-13091924D01*
X14029801Y-13091924D02*
X14029801Y-13139543D01*
X14029801Y-13139543D02*
X14020277Y-13177638D01*
X14020277Y-13177638D02*
X14010753Y-13196686D01*
X14010753Y-13196686D02*
X14001229Y-13206210D01*
X14001229Y-13206210D02*
X13982182Y-13215734D01*
X13982182Y-13215734D02*
X13963134Y-13215734D01*
X13963134Y-13215734D02*
X13944086Y-13206210D01*
X13944086Y-13206210D02*
X13934563Y-13196686D01*
X13934563Y-13196686D02*
X13925039Y-13177638D01*
X13925039Y-13177638D02*
X13915515Y-13139543D01*
X13915515Y-13139543D02*
X13915515Y-13091924D01*
X13915515Y-13091924D02*
X13925039Y-13053829D01*
X13925039Y-13053829D02*
X13934563Y-13034781D01*
X13934563Y-13034781D02*
X13944086Y-13025258D01*
X13944086Y-13025258D02*
X13963134Y-13015734D01*
X14115515Y-13196686D02*
X14125039Y-13206210D01*
X14125039Y-13206210D02*
X14115515Y-13215734D01*
X14115515Y-13215734D02*
X14105991Y-13206210D01*
X14105991Y-13206210D02*
X14115515Y-13196686D01*
X14115515Y-13196686D02*
X14115515Y-13215734D01*
X14248848Y-13015734D02*
X14267896Y-13015734D01*
X14267896Y-13015734D02*
X14286944Y-13025258D01*
X14286944Y-13025258D02*
X14296467Y-13034781D01*
X14296467Y-13034781D02*
X14305991Y-13053829D01*
X14305991Y-13053829D02*
X14315515Y-13091924D01*
X14315515Y-13091924D02*
X14315515Y-13139543D01*
X14315515Y-13139543D02*
X14305991Y-13177638D01*
X14305991Y-13177638D02*
X14296467Y-13196686D01*
X14296467Y-13196686D02*
X14286944Y-13206210D01*
X14286944Y-13206210D02*
X14267896Y-13215734D01*
X14267896Y-13215734D02*
X14248848Y-13215734D01*
X14248848Y-13215734D02*
X14229801Y-13206210D01*
X14229801Y-13206210D02*
X14220277Y-13196686D01*
X14220277Y-13196686D02*
X14210753Y-13177638D01*
X14210753Y-13177638D02*
X14201229Y-13139543D01*
X14201229Y-13139543D02*
X14201229Y-13091924D01*
X14201229Y-13091924D02*
X14210753Y-13053829D01*
X14210753Y-13053829D02*
X14220277Y-13034781D01*
X14220277Y-13034781D02*
X14229801Y-13025258D01*
X14229801Y-13025258D02*
X14248848Y-13015734D01*
X14505991Y-13215734D02*
X14391706Y-13215734D01*
X14448848Y-13215734D02*
X14448848Y-13015734D01*
X14448848Y-13015734D02*
X14429801Y-13044305D01*
X14429801Y-13044305D02*
X14410753Y-13063353D01*
X14410753Y-13063353D02*
X14391706Y-13072877D01*
X14696467Y-13215734D02*
X14582182Y-13215734D01*
X14639325Y-13215734D02*
X14639325Y-13015734D01*
X14639325Y-13015734D02*
X14620277Y-13044305D01*
X14620277Y-13044305D02*
X14601229Y-13063353D01*
X14601229Y-13063353D02*
X14582182Y-13072877D01*
X14810753Y-13101448D02*
X14791706Y-13091924D01*
X14791706Y-13091924D02*
X14782182Y-13082400D01*
X14782182Y-13082400D02*
X14772658Y-13063353D01*
X14772658Y-13063353D02*
X14772658Y-13053829D01*
X14772658Y-13053829D02*
X14782182Y-13034781D01*
X14782182Y-13034781D02*
X14791706Y-13025258D01*
X14791706Y-13025258D02*
X14810753Y-13015734D01*
X14810753Y-13015734D02*
X14848848Y-13015734D01*
X14848848Y-13015734D02*
X14867896Y-13025258D01*
X14867896Y-13025258D02*
X14877420Y-13034781D01*
X14877420Y-13034781D02*
X14886944Y-13053829D01*
X14886944Y-13053829D02*
X14886944Y-13063353D01*
X14886944Y-13063353D02*
X14877420Y-13082400D01*
X14877420Y-13082400D02*
X14867896Y-13091924D01*
X14867896Y-13091924D02*
X14848848Y-13101448D01*
X14848848Y-13101448D02*
X14810753Y-13101448D01*
X14810753Y-13101448D02*
X14791706Y-13110972D01*
X14791706Y-13110972D02*
X14782182Y-13120496D01*
X14782182Y-13120496D02*
X14772658Y-13139543D01*
X14772658Y-13139543D02*
X14772658Y-13177638D01*
X14772658Y-13177638D02*
X14782182Y-13196686D01*
X14782182Y-13196686D02*
X14791706Y-13206210D01*
X14791706Y-13206210D02*
X14810753Y-13215734D01*
X14810753Y-13215734D02*
X14848848Y-13215734D01*
X14848848Y-13215734D02*
X14867896Y-13206210D01*
X14867896Y-13206210D02*
X14877420Y-13196686D01*
X14877420Y-13196686D02*
X14886944Y-13177638D01*
X14886944Y-13177638D02*
X14886944Y-13139543D01*
X14886944Y-13139543D02*
X14877420Y-13120496D01*
X14877420Y-13120496D02*
X14867896Y-13110972D01*
X14867896Y-13110972D02*
X14848848Y-13101448D01*
X14963134Y-13015734D02*
X14963134Y-13053829D01*
X15039325Y-13015734D02*
X15039325Y-13053829D01*
X15334563Y-13291924D02*
X15325039Y-13282400D01*
X15325039Y-13282400D02*
X15305991Y-13253829D01*
X15305991Y-13253829D02*
X15296468Y-13234781D01*
X15296468Y-13234781D02*
X15286944Y-13206210D01*
X15286944Y-13206210D02*
X15277420Y-13158591D01*
X15277420Y-13158591D02*
X15277420Y-13120496D01*
X15277420Y-13120496D02*
X15286944Y-13072877D01*
X15286944Y-13072877D02*
X15296468Y-13044305D01*
X15296468Y-13044305D02*
X15305991Y-13025258D01*
X15305991Y-13025258D02*
X15325039Y-12996686D01*
X15325039Y-12996686D02*
X15334563Y-12987162D01*
X15515515Y-13215734D02*
X15401229Y-13215734D01*
X15458372Y-13215734D02*
X15458372Y-13015734D01*
X15458372Y-13015734D02*
X15439325Y-13044305D01*
X15439325Y-13044305D02*
X15420277Y-13063353D01*
X15420277Y-13063353D02*
X15401229Y-13072877D01*
X15753610Y-13215734D02*
X15753610Y-13015734D01*
X15839325Y-13215734D02*
X15839325Y-13110972D01*
X15839325Y-13110972D02*
X15829801Y-13091924D01*
X15829801Y-13091924D02*
X15810753Y-13082400D01*
X15810753Y-13082400D02*
X15782182Y-13082400D01*
X15782182Y-13082400D02*
X15763134Y-13091924D01*
X15763134Y-13091924D02*
X15753610Y-13101448D01*
X15963134Y-13215734D02*
X15944087Y-13206210D01*
X15944087Y-13206210D02*
X15934563Y-13196686D01*
X15934563Y-13196686D02*
X15925039Y-13177638D01*
X15925039Y-13177638D02*
X15925039Y-13120496D01*
X15925039Y-13120496D02*
X15934563Y-13101448D01*
X15934563Y-13101448D02*
X15944087Y-13091924D01*
X15944087Y-13091924D02*
X15963134Y-13082400D01*
X15963134Y-13082400D02*
X15991706Y-13082400D01*
X15991706Y-13082400D02*
X16010753Y-13091924D01*
X16010753Y-13091924D02*
X16020277Y-13101448D01*
X16020277Y-13101448D02*
X16029801Y-13120496D01*
X16029801Y-13120496D02*
X16029801Y-13177638D01*
X16029801Y-13177638D02*
X16020277Y-13196686D01*
X16020277Y-13196686D02*
X16010753Y-13206210D01*
X16010753Y-13206210D02*
X15991706Y-13215734D01*
X15991706Y-13215734D02*
X15963134Y-13215734D01*
X16144087Y-13215734D02*
X16125039Y-13206210D01*
X16125039Y-13206210D02*
X16115515Y-13187162D01*
X16115515Y-13187162D02*
X16115515Y-13015734D01*
X16296468Y-13206210D02*
X16277420Y-13215734D01*
X16277420Y-13215734D02*
X16239325Y-13215734D01*
X16239325Y-13215734D02*
X16220277Y-13206210D01*
X16220277Y-13206210D02*
X16210753Y-13187162D01*
X16210753Y-13187162D02*
X16210753Y-13110972D01*
X16210753Y-13110972D02*
X16220277Y-13091924D01*
X16220277Y-13091924D02*
X16239325Y-13082400D01*
X16239325Y-13082400D02*
X16277420Y-13082400D01*
X16277420Y-13082400D02*
X16296468Y-13091924D01*
X16296468Y-13091924D02*
X16305991Y-13110972D01*
X16305991Y-13110972D02*
X16305991Y-13130019D01*
X16305991Y-13130019D02*
X16210753Y-13149067D01*
X16372658Y-13291924D02*
X16382182Y-13282400D01*
X16382182Y-13282400D02*
X16401230Y-13253829D01*
X16401230Y-13253829D02*
X16410753Y-13234781D01*
X16410753Y-13234781D02*
X16420277Y-13206210D01*
X16420277Y-13206210D02*
X16429801Y-13158591D01*
X16429801Y-13158591D02*
X16429801Y-13120496D01*
X16429801Y-13120496D02*
X16420277Y-13072877D01*
X16420277Y-13072877D02*
X16410753Y-13044305D01*
X16410753Y-13044305D02*
X16401230Y-13025258D01*
X16401230Y-13025258D02*
X16382182Y-12996686D01*
X16382182Y-12996686D02*
X16372658Y-12987162D01*
D12*
X11759500Y-13388250D02*
G75*
G02*
X11689500Y-13388250I-35000J0D01*
G01*
X11689500Y-13388250D02*
G75*
G02*
X11759500Y-13388250I35000J0D01*
G01*
D11*
X12058372Y-13279734D02*
X12077420Y-13279734D01*
X12077420Y-13279734D02*
X12096467Y-13289258D01*
X12096467Y-13289258D02*
X12105991Y-13298781D01*
X12105991Y-13298781D02*
X12115515Y-13317829D01*
X12115515Y-13317829D02*
X12125039Y-13355924D01*
X12125039Y-13355924D02*
X12125039Y-13403543D01*
X12125039Y-13403543D02*
X12115515Y-13441638D01*
X12115515Y-13441638D02*
X12105991Y-13460686D01*
X12105991Y-13460686D02*
X12096467Y-13470210D01*
X12096467Y-13470210D02*
X12077420Y-13479734D01*
X12077420Y-13479734D02*
X12058372Y-13479734D01*
X12058372Y-13479734D02*
X12039324Y-13470210D01*
X12039324Y-13470210D02*
X12029801Y-13460686D01*
X12029801Y-13460686D02*
X12020277Y-13441638D01*
X12020277Y-13441638D02*
X12010753Y-13403543D01*
X12010753Y-13403543D02*
X12010753Y-13355924D01*
X12010753Y-13355924D02*
X12020277Y-13317829D01*
X12020277Y-13317829D02*
X12029801Y-13298781D01*
X12029801Y-13298781D02*
X12039324Y-13289258D01*
X12039324Y-13289258D02*
X12058372Y-13279734D01*
X12210753Y-13460686D02*
X12220277Y-13470210D01*
X12220277Y-13470210D02*
X12210753Y-13479734D01*
X12210753Y-13479734D02*
X12201229Y-13470210D01*
X12201229Y-13470210D02*
X12210753Y-13460686D01*
X12210753Y-13460686D02*
X12210753Y-13479734D01*
X12286943Y-13279734D02*
X12420277Y-13279734D01*
X12420277Y-13279734D02*
X12334562Y-13479734D01*
X12534562Y-13279734D02*
X12553610Y-13279734D01*
X12553610Y-13279734D02*
X12572658Y-13289258D01*
X12572658Y-13289258D02*
X12582182Y-13298781D01*
X12582182Y-13298781D02*
X12591705Y-13317829D01*
X12591705Y-13317829D02*
X12601229Y-13355924D01*
X12601229Y-13355924D02*
X12601229Y-13403543D01*
X12601229Y-13403543D02*
X12591705Y-13441638D01*
X12591705Y-13441638D02*
X12582182Y-13460686D01*
X12582182Y-13460686D02*
X12572658Y-13470210D01*
X12572658Y-13470210D02*
X12553610Y-13479734D01*
X12553610Y-13479734D02*
X12534562Y-13479734D01*
X12534562Y-13479734D02*
X12515515Y-13470210D01*
X12515515Y-13470210D02*
X12505991Y-13460686D01*
X12505991Y-13460686D02*
X12496467Y-13441638D01*
X12496467Y-13441638D02*
X12486943Y-13403543D01*
X12486943Y-13403543D02*
X12486943Y-13355924D01*
X12486943Y-13355924D02*
X12496467Y-13317829D01*
X12496467Y-13317829D02*
X12505991Y-13298781D01*
X12505991Y-13298781D02*
X12515515Y-13289258D01*
X12515515Y-13289258D02*
X12534562Y-13279734D01*
X12725039Y-13279734D02*
X12744086Y-13279734D01*
X12744086Y-13279734D02*
X12763134Y-13289258D01*
X12763134Y-13289258D02*
X12772658Y-13298781D01*
X12772658Y-13298781D02*
X12782182Y-13317829D01*
X12782182Y-13317829D02*
X12791705Y-13355924D01*
X12791705Y-13355924D02*
X12791705Y-13403543D01*
X12791705Y-13403543D02*
X12782182Y-13441638D01*
X12782182Y-13441638D02*
X12772658Y-13460686D01*
X12772658Y-13460686D02*
X12763134Y-13470210D01*
X12763134Y-13470210D02*
X12744086Y-13479734D01*
X12744086Y-13479734D02*
X12725039Y-13479734D01*
X12725039Y-13479734D02*
X12705991Y-13470210D01*
X12705991Y-13470210D02*
X12696467Y-13460686D01*
X12696467Y-13460686D02*
X12686943Y-13441638D01*
X12686943Y-13441638D02*
X12677420Y-13403543D01*
X12677420Y-13403543D02*
X12677420Y-13355924D01*
X12677420Y-13355924D02*
X12686943Y-13317829D01*
X12686943Y-13317829D02*
X12696467Y-13298781D01*
X12696467Y-13298781D02*
X12705991Y-13289258D01*
X12705991Y-13289258D02*
X12725039Y-13279734D01*
X12877420Y-13479734D02*
X12877420Y-13346400D01*
X12877420Y-13365448D02*
X12886943Y-13355924D01*
X12886943Y-13355924D02*
X12905991Y-13346400D01*
X12905991Y-13346400D02*
X12934563Y-13346400D01*
X12934563Y-13346400D02*
X12953610Y-13355924D01*
X12953610Y-13355924D02*
X12963134Y-13374972D01*
X12963134Y-13374972D02*
X12963134Y-13479734D01*
X12963134Y-13374972D02*
X12972658Y-13355924D01*
X12972658Y-13355924D02*
X12991705Y-13346400D01*
X12991705Y-13346400D02*
X13020277Y-13346400D01*
X13020277Y-13346400D02*
X13039324Y-13355924D01*
X13039324Y-13355924D02*
X13048848Y-13374972D01*
X13048848Y-13374972D02*
X13048848Y-13479734D01*
X13144086Y-13479734D02*
X13144086Y-13346400D01*
X13144086Y-13365448D02*
X13153610Y-13355924D01*
X13153610Y-13355924D02*
X13172658Y-13346400D01*
X13172658Y-13346400D02*
X13201229Y-13346400D01*
X13201229Y-13346400D02*
X13220277Y-13355924D01*
X13220277Y-13355924D02*
X13229801Y-13374972D01*
X13229801Y-13374972D02*
X13229801Y-13479734D01*
X13229801Y-13374972D02*
X13239324Y-13355924D01*
X13239324Y-13355924D02*
X13258372Y-13346400D01*
X13258372Y-13346400D02*
X13286943Y-13346400D01*
X13286943Y-13346400D02*
X13305991Y-13355924D01*
X13305991Y-13355924D02*
X13315515Y-13374972D01*
X13315515Y-13374972D02*
X13315515Y-13479734D01*
X13705991Y-13270210D02*
X13534563Y-13527353D01*
X13963134Y-13279734D02*
X13982182Y-13279734D01*
X13982182Y-13279734D02*
X14001229Y-13289258D01*
X14001229Y-13289258D02*
X14010753Y-13298781D01*
X14010753Y-13298781D02*
X14020277Y-13317829D01*
X14020277Y-13317829D02*
X14029801Y-13355924D01*
X14029801Y-13355924D02*
X14029801Y-13403543D01*
X14029801Y-13403543D02*
X14020277Y-13441638D01*
X14020277Y-13441638D02*
X14010753Y-13460686D01*
X14010753Y-13460686D02*
X14001229Y-13470210D01*
X14001229Y-13470210D02*
X13982182Y-13479734D01*
X13982182Y-13479734D02*
X13963134Y-13479734D01*
X13963134Y-13479734D02*
X13944086Y-13470210D01*
X13944086Y-13470210D02*
X13934563Y-13460686D01*
X13934563Y-13460686D02*
X13925039Y-13441638D01*
X13925039Y-13441638D02*
X13915515Y-13403543D01*
X13915515Y-13403543D02*
X13915515Y-13355924D01*
X13915515Y-13355924D02*
X13925039Y-13317829D01*
X13925039Y-13317829D02*
X13934563Y-13298781D01*
X13934563Y-13298781D02*
X13944086Y-13289258D01*
X13944086Y-13289258D02*
X13963134Y-13279734D01*
X14115515Y-13460686D02*
X14125039Y-13470210D01*
X14125039Y-13470210D02*
X14115515Y-13479734D01*
X14115515Y-13479734D02*
X14105991Y-13470210D01*
X14105991Y-13470210D02*
X14115515Y-13460686D01*
X14115515Y-13460686D02*
X14115515Y-13479734D01*
X14248848Y-13279734D02*
X14267896Y-13279734D01*
X14267896Y-13279734D02*
X14286944Y-13289258D01*
X14286944Y-13289258D02*
X14296467Y-13298781D01*
X14296467Y-13298781D02*
X14305991Y-13317829D01*
X14305991Y-13317829D02*
X14315515Y-13355924D01*
X14315515Y-13355924D02*
X14315515Y-13403543D01*
X14315515Y-13403543D02*
X14305991Y-13441638D01*
X14305991Y-13441638D02*
X14296467Y-13460686D01*
X14296467Y-13460686D02*
X14286944Y-13470210D01*
X14286944Y-13470210D02*
X14267896Y-13479734D01*
X14267896Y-13479734D02*
X14248848Y-13479734D01*
X14248848Y-13479734D02*
X14229801Y-13470210D01*
X14229801Y-13470210D02*
X14220277Y-13460686D01*
X14220277Y-13460686D02*
X14210753Y-13441638D01*
X14210753Y-13441638D02*
X14201229Y-13403543D01*
X14201229Y-13403543D02*
X14201229Y-13355924D01*
X14201229Y-13355924D02*
X14210753Y-13317829D01*
X14210753Y-13317829D02*
X14220277Y-13298781D01*
X14220277Y-13298781D02*
X14229801Y-13289258D01*
X14229801Y-13289258D02*
X14248848Y-13279734D01*
X14391706Y-13298781D02*
X14401229Y-13289258D01*
X14401229Y-13289258D02*
X14420277Y-13279734D01*
X14420277Y-13279734D02*
X14467896Y-13279734D01*
X14467896Y-13279734D02*
X14486944Y-13289258D01*
X14486944Y-13289258D02*
X14496467Y-13298781D01*
X14496467Y-13298781D02*
X14505991Y-13317829D01*
X14505991Y-13317829D02*
X14505991Y-13336877D01*
X14505991Y-13336877D02*
X14496467Y-13365448D01*
X14496467Y-13365448D02*
X14382182Y-13479734D01*
X14382182Y-13479734D02*
X14505991Y-13479734D01*
X14572658Y-13279734D02*
X14705991Y-13279734D01*
X14705991Y-13279734D02*
X14620277Y-13479734D01*
X14867896Y-13279734D02*
X14829801Y-13279734D01*
X14829801Y-13279734D02*
X14810753Y-13289258D01*
X14810753Y-13289258D02*
X14801229Y-13298781D01*
X14801229Y-13298781D02*
X14782182Y-13327353D01*
X14782182Y-13327353D02*
X14772658Y-13365448D01*
X14772658Y-13365448D02*
X14772658Y-13441638D01*
X14772658Y-13441638D02*
X14782182Y-13460686D01*
X14782182Y-13460686D02*
X14791706Y-13470210D01*
X14791706Y-13470210D02*
X14810753Y-13479734D01*
X14810753Y-13479734D02*
X14848848Y-13479734D01*
X14848848Y-13479734D02*
X14867896Y-13470210D01*
X14867896Y-13470210D02*
X14877420Y-13460686D01*
X14877420Y-13460686D02*
X14886944Y-13441638D01*
X14886944Y-13441638D02*
X14886944Y-13394019D01*
X14886944Y-13394019D02*
X14877420Y-13374972D01*
X14877420Y-13374972D02*
X14867896Y-13365448D01*
X14867896Y-13365448D02*
X14848848Y-13355924D01*
X14848848Y-13355924D02*
X14810753Y-13355924D01*
X14810753Y-13355924D02*
X14791706Y-13365448D01*
X14791706Y-13365448D02*
X14782182Y-13374972D01*
X14782182Y-13374972D02*
X14772658Y-13394019D01*
X14963134Y-13279734D02*
X14963134Y-13317829D01*
X15039325Y-13279734D02*
X15039325Y-13317829D01*
X15334563Y-13555924D02*
X15325039Y-13546400D01*
X15325039Y-13546400D02*
X15305991Y-13517829D01*
X15305991Y-13517829D02*
X15296468Y-13498781D01*
X15296468Y-13498781D02*
X15286944Y-13470210D01*
X15286944Y-13470210D02*
X15277420Y-13422591D01*
X15277420Y-13422591D02*
X15277420Y-13384496D01*
X15277420Y-13384496D02*
X15286944Y-13336877D01*
X15286944Y-13336877D02*
X15296468Y-13308305D01*
X15296468Y-13308305D02*
X15305991Y-13289258D01*
X15305991Y-13289258D02*
X15325039Y-13260686D01*
X15325039Y-13260686D02*
X15334563Y-13251162D01*
X15496468Y-13279734D02*
X15458372Y-13279734D01*
X15458372Y-13279734D02*
X15439325Y-13289258D01*
X15439325Y-13289258D02*
X15429801Y-13298781D01*
X15429801Y-13298781D02*
X15410753Y-13327353D01*
X15410753Y-13327353D02*
X15401229Y-13365448D01*
X15401229Y-13365448D02*
X15401229Y-13441638D01*
X15401229Y-13441638D02*
X15410753Y-13460686D01*
X15410753Y-13460686D02*
X15420277Y-13470210D01*
X15420277Y-13470210D02*
X15439325Y-13479734D01*
X15439325Y-13479734D02*
X15477420Y-13479734D01*
X15477420Y-13479734D02*
X15496468Y-13470210D01*
X15496468Y-13470210D02*
X15505991Y-13460686D01*
X15505991Y-13460686D02*
X15515515Y-13441638D01*
X15515515Y-13441638D02*
X15515515Y-13394019D01*
X15515515Y-13394019D02*
X15505991Y-13374972D01*
X15505991Y-13374972D02*
X15496468Y-13365448D01*
X15496468Y-13365448D02*
X15477420Y-13355924D01*
X15477420Y-13355924D02*
X15439325Y-13355924D01*
X15439325Y-13355924D02*
X15420277Y-13365448D01*
X15420277Y-13365448D02*
X15410753Y-13374972D01*
X15410753Y-13374972D02*
X15401229Y-13394019D01*
X15753610Y-13479734D02*
X15753610Y-13279734D01*
X15839325Y-13479734D02*
X15839325Y-13374972D01*
X15839325Y-13374972D02*
X15829801Y-13355924D01*
X15829801Y-13355924D02*
X15810753Y-13346400D01*
X15810753Y-13346400D02*
X15782182Y-13346400D01*
X15782182Y-13346400D02*
X15763134Y-13355924D01*
X15763134Y-13355924D02*
X15753610Y-13365448D01*
X15963134Y-13479734D02*
X15944087Y-13470210D01*
X15944087Y-13470210D02*
X15934563Y-13460686D01*
X15934563Y-13460686D02*
X15925039Y-13441638D01*
X15925039Y-13441638D02*
X15925039Y-13384496D01*
X15925039Y-13384496D02*
X15934563Y-13365448D01*
X15934563Y-13365448D02*
X15944087Y-13355924D01*
X15944087Y-13355924D02*
X15963134Y-13346400D01*
X15963134Y-13346400D02*
X15991706Y-13346400D01*
X15991706Y-13346400D02*
X16010753Y-13355924D01*
X16010753Y-13355924D02*
X16020277Y-13365448D01*
X16020277Y-13365448D02*
X16029801Y-13384496D01*
X16029801Y-13384496D02*
X16029801Y-13441638D01*
X16029801Y-13441638D02*
X16020277Y-13460686D01*
X16020277Y-13460686D02*
X16010753Y-13470210D01*
X16010753Y-13470210D02*
X15991706Y-13479734D01*
X15991706Y-13479734D02*
X15963134Y-13479734D01*
X16144087Y-13479734D02*
X16125039Y-13470210D01*
X16125039Y-13470210D02*
X16115515Y-13451162D01*
X16115515Y-13451162D02*
X16115515Y-13279734D01*
X16296468Y-13470210D02*
X16277420Y-13479734D01*
X16277420Y-13479734D02*
X16239325Y-13479734D01*
X16239325Y-13479734D02*
X16220277Y-13470210D01*
X16220277Y-13470210D02*
X16210753Y-13451162D01*
X16210753Y-13451162D02*
X16210753Y-13374972D01*
X16210753Y-13374972D02*
X16220277Y-13355924D01*
X16220277Y-13355924D02*
X16239325Y-13346400D01*
X16239325Y-13346400D02*
X16277420Y-13346400D01*
X16277420Y-13346400D02*
X16296468Y-13355924D01*
X16296468Y-13355924D02*
X16305991Y-13374972D01*
X16305991Y-13374972D02*
X16305991Y-13394019D01*
X16305991Y-13394019D02*
X16210753Y-13413067D01*
X16382182Y-13470210D02*
X16401230Y-13479734D01*
X16401230Y-13479734D02*
X16439325Y-13479734D01*
X16439325Y-13479734D02*
X16458372Y-13470210D01*
X16458372Y-13470210D02*
X16467896Y-13451162D01*
X16467896Y-13451162D02*
X16467896Y-13441638D01*
X16467896Y-13441638D02*
X16458372Y-13422591D01*
X16458372Y-13422591D02*
X16439325Y-13413067D01*
X16439325Y-13413067D02*
X16410753Y-13413067D01*
X16410753Y-13413067D02*
X16391706Y-13403543D01*
X16391706Y-13403543D02*
X16382182Y-13384496D01*
X16382182Y-13384496D02*
X16382182Y-13374972D01*
X16382182Y-13374972D02*
X16391706Y-13355924D01*
X16391706Y-13355924D02*
X16410753Y-13346400D01*
X16410753Y-13346400D02*
X16439325Y-13346400D01*
X16439325Y-13346400D02*
X16458372Y-13355924D01*
X16534563Y-13555924D02*
X16544087Y-13546400D01*
X16544087Y-13546400D02*
X16563134Y-13517829D01*
X16563134Y-13517829D02*
X16572658Y-13498781D01*
X16572658Y-13498781D02*
X16582182Y-13470210D01*
X16582182Y-13470210D02*
X16591706Y-13422591D01*
X16591706Y-13422591D02*
X16591706Y-13384496D01*
X16591706Y-13384496D02*
X16582182Y-13336877D01*
X16582182Y-13336877D02*
X16572658Y-13308305D01*
X16572658Y-13308305D02*
X16563134Y-13289258D01*
X16563134Y-13289258D02*
X16544087Y-13260686D01*
X16544087Y-13260686D02*
X16534563Y-13251162D01*
D12*
X11719500Y-13612250D02*
X11719500Y-13692250D01*
X11679500Y-13652250D02*
X11759500Y-13652250D01*
D11*
X12058372Y-13543734D02*
X12077420Y-13543734D01*
X12077420Y-13543734D02*
X12096467Y-13553258D01*
X12096467Y-13553258D02*
X12105991Y-13562781D01*
X12105991Y-13562781D02*
X12115515Y-13581829D01*
X12115515Y-13581829D02*
X12125039Y-13619924D01*
X12125039Y-13619924D02*
X12125039Y-13667543D01*
X12125039Y-13667543D02*
X12115515Y-13705638D01*
X12115515Y-13705638D02*
X12105991Y-13724686D01*
X12105991Y-13724686D02*
X12096467Y-13734210D01*
X12096467Y-13734210D02*
X12077420Y-13743734D01*
X12077420Y-13743734D02*
X12058372Y-13743734D01*
X12058372Y-13743734D02*
X12039324Y-13734210D01*
X12039324Y-13734210D02*
X12029801Y-13724686D01*
X12029801Y-13724686D02*
X12020277Y-13705638D01*
X12020277Y-13705638D02*
X12010753Y-13667543D01*
X12010753Y-13667543D02*
X12010753Y-13619924D01*
X12010753Y-13619924D02*
X12020277Y-13581829D01*
X12020277Y-13581829D02*
X12029801Y-13562781D01*
X12029801Y-13562781D02*
X12039324Y-13553258D01*
X12039324Y-13553258D02*
X12058372Y-13543734D01*
X12210753Y-13724686D02*
X12220277Y-13734210D01*
X12220277Y-13734210D02*
X12210753Y-13743734D01*
X12210753Y-13743734D02*
X12201229Y-13734210D01*
X12201229Y-13734210D02*
X12210753Y-13724686D01*
X12210753Y-13724686D02*
X12210753Y-13743734D01*
X12334562Y-13629448D02*
X12315515Y-13619924D01*
X12315515Y-13619924D02*
X12305991Y-13610400D01*
X12305991Y-13610400D02*
X12296467Y-13591353D01*
X12296467Y-13591353D02*
X12296467Y-13581829D01*
X12296467Y-13581829D02*
X12305991Y-13562781D01*
X12305991Y-13562781D02*
X12315515Y-13553258D01*
X12315515Y-13553258D02*
X12334562Y-13543734D01*
X12334562Y-13543734D02*
X12372658Y-13543734D01*
X12372658Y-13543734D02*
X12391705Y-13553258D01*
X12391705Y-13553258D02*
X12401229Y-13562781D01*
X12401229Y-13562781D02*
X12410753Y-13581829D01*
X12410753Y-13581829D02*
X12410753Y-13591353D01*
X12410753Y-13591353D02*
X12401229Y-13610400D01*
X12401229Y-13610400D02*
X12391705Y-13619924D01*
X12391705Y-13619924D02*
X12372658Y-13629448D01*
X12372658Y-13629448D02*
X12334562Y-13629448D01*
X12334562Y-13629448D02*
X12315515Y-13638972D01*
X12315515Y-13638972D02*
X12305991Y-13648496D01*
X12305991Y-13648496D02*
X12296467Y-13667543D01*
X12296467Y-13667543D02*
X12296467Y-13705638D01*
X12296467Y-13705638D02*
X12305991Y-13724686D01*
X12305991Y-13724686D02*
X12315515Y-13734210D01*
X12315515Y-13734210D02*
X12334562Y-13743734D01*
X12334562Y-13743734D02*
X12372658Y-13743734D01*
X12372658Y-13743734D02*
X12391705Y-13734210D01*
X12391705Y-13734210D02*
X12401229Y-13724686D01*
X12401229Y-13724686D02*
X12410753Y-13705638D01*
X12410753Y-13705638D02*
X12410753Y-13667543D01*
X12410753Y-13667543D02*
X12401229Y-13648496D01*
X12401229Y-13648496D02*
X12391705Y-13638972D01*
X12391705Y-13638972D02*
X12372658Y-13629448D01*
X12534562Y-13543734D02*
X12553610Y-13543734D01*
X12553610Y-13543734D02*
X12572658Y-13553258D01*
X12572658Y-13553258D02*
X12582182Y-13562781D01*
X12582182Y-13562781D02*
X12591705Y-13581829D01*
X12591705Y-13581829D02*
X12601229Y-13619924D01*
X12601229Y-13619924D02*
X12601229Y-13667543D01*
X12601229Y-13667543D02*
X12591705Y-13705638D01*
X12591705Y-13705638D02*
X12582182Y-13724686D01*
X12582182Y-13724686D02*
X12572658Y-13734210D01*
X12572658Y-13734210D02*
X12553610Y-13743734D01*
X12553610Y-13743734D02*
X12534562Y-13743734D01*
X12534562Y-13743734D02*
X12515515Y-13734210D01*
X12515515Y-13734210D02*
X12505991Y-13724686D01*
X12505991Y-13724686D02*
X12496467Y-13705638D01*
X12496467Y-13705638D02*
X12486943Y-13667543D01*
X12486943Y-13667543D02*
X12486943Y-13619924D01*
X12486943Y-13619924D02*
X12496467Y-13581829D01*
X12496467Y-13581829D02*
X12505991Y-13562781D01*
X12505991Y-13562781D02*
X12515515Y-13553258D01*
X12515515Y-13553258D02*
X12534562Y-13543734D01*
X12725039Y-13543734D02*
X12744086Y-13543734D01*
X12744086Y-13543734D02*
X12763134Y-13553258D01*
X12763134Y-13553258D02*
X12772658Y-13562781D01*
X12772658Y-13562781D02*
X12782182Y-13581829D01*
X12782182Y-13581829D02*
X12791705Y-13619924D01*
X12791705Y-13619924D02*
X12791705Y-13667543D01*
X12791705Y-13667543D02*
X12782182Y-13705638D01*
X12782182Y-13705638D02*
X12772658Y-13724686D01*
X12772658Y-13724686D02*
X12763134Y-13734210D01*
X12763134Y-13734210D02*
X12744086Y-13743734D01*
X12744086Y-13743734D02*
X12725039Y-13743734D01*
X12725039Y-13743734D02*
X12705991Y-13734210D01*
X12705991Y-13734210D02*
X12696467Y-13724686D01*
X12696467Y-13724686D02*
X12686943Y-13705638D01*
X12686943Y-13705638D02*
X12677420Y-13667543D01*
X12677420Y-13667543D02*
X12677420Y-13619924D01*
X12677420Y-13619924D02*
X12686943Y-13581829D01*
X12686943Y-13581829D02*
X12696467Y-13562781D01*
X12696467Y-13562781D02*
X12705991Y-13553258D01*
X12705991Y-13553258D02*
X12725039Y-13543734D01*
X12877420Y-13743734D02*
X12877420Y-13610400D01*
X12877420Y-13629448D02*
X12886943Y-13619924D01*
X12886943Y-13619924D02*
X12905991Y-13610400D01*
X12905991Y-13610400D02*
X12934563Y-13610400D01*
X12934563Y-13610400D02*
X12953610Y-13619924D01*
X12953610Y-13619924D02*
X12963134Y-13638972D01*
X12963134Y-13638972D02*
X12963134Y-13743734D01*
X12963134Y-13638972D02*
X12972658Y-13619924D01*
X12972658Y-13619924D02*
X12991705Y-13610400D01*
X12991705Y-13610400D02*
X13020277Y-13610400D01*
X13020277Y-13610400D02*
X13039324Y-13619924D01*
X13039324Y-13619924D02*
X13048848Y-13638972D01*
X13048848Y-13638972D02*
X13048848Y-13743734D01*
X13144086Y-13743734D02*
X13144086Y-13610400D01*
X13144086Y-13629448D02*
X13153610Y-13619924D01*
X13153610Y-13619924D02*
X13172658Y-13610400D01*
X13172658Y-13610400D02*
X13201229Y-13610400D01*
X13201229Y-13610400D02*
X13220277Y-13619924D01*
X13220277Y-13619924D02*
X13229801Y-13638972D01*
X13229801Y-13638972D02*
X13229801Y-13743734D01*
X13229801Y-13638972D02*
X13239324Y-13619924D01*
X13239324Y-13619924D02*
X13258372Y-13610400D01*
X13258372Y-13610400D02*
X13286943Y-13610400D01*
X13286943Y-13610400D02*
X13305991Y-13619924D01*
X13305991Y-13619924D02*
X13315515Y-13638972D01*
X13315515Y-13638972D02*
X13315515Y-13743734D01*
X13705991Y-13534210D02*
X13534563Y-13791353D01*
X13963134Y-13543734D02*
X13982182Y-13543734D01*
X13982182Y-13543734D02*
X14001229Y-13553258D01*
X14001229Y-13553258D02*
X14010753Y-13562781D01*
X14010753Y-13562781D02*
X14020277Y-13581829D01*
X14020277Y-13581829D02*
X14029801Y-13619924D01*
X14029801Y-13619924D02*
X14029801Y-13667543D01*
X14029801Y-13667543D02*
X14020277Y-13705638D01*
X14020277Y-13705638D02*
X14010753Y-13724686D01*
X14010753Y-13724686D02*
X14001229Y-13734210D01*
X14001229Y-13734210D02*
X13982182Y-13743734D01*
X13982182Y-13743734D02*
X13963134Y-13743734D01*
X13963134Y-13743734D02*
X13944086Y-13734210D01*
X13944086Y-13734210D02*
X13934563Y-13724686D01*
X13934563Y-13724686D02*
X13925039Y-13705638D01*
X13925039Y-13705638D02*
X13915515Y-13667543D01*
X13915515Y-13667543D02*
X13915515Y-13619924D01*
X13915515Y-13619924D02*
X13925039Y-13581829D01*
X13925039Y-13581829D02*
X13934563Y-13562781D01*
X13934563Y-13562781D02*
X13944086Y-13553258D01*
X13944086Y-13553258D02*
X13963134Y-13543734D01*
X14115515Y-13724686D02*
X14125039Y-13734210D01*
X14125039Y-13734210D02*
X14115515Y-13743734D01*
X14115515Y-13743734D02*
X14105991Y-13734210D01*
X14105991Y-13734210D02*
X14115515Y-13724686D01*
X14115515Y-13724686D02*
X14115515Y-13743734D01*
X14248848Y-13543734D02*
X14267896Y-13543734D01*
X14267896Y-13543734D02*
X14286944Y-13553258D01*
X14286944Y-13553258D02*
X14296467Y-13562781D01*
X14296467Y-13562781D02*
X14305991Y-13581829D01*
X14305991Y-13581829D02*
X14315515Y-13619924D01*
X14315515Y-13619924D02*
X14315515Y-13667543D01*
X14315515Y-13667543D02*
X14305991Y-13705638D01*
X14305991Y-13705638D02*
X14296467Y-13724686D01*
X14296467Y-13724686D02*
X14286944Y-13734210D01*
X14286944Y-13734210D02*
X14267896Y-13743734D01*
X14267896Y-13743734D02*
X14248848Y-13743734D01*
X14248848Y-13743734D02*
X14229801Y-13734210D01*
X14229801Y-13734210D02*
X14220277Y-13724686D01*
X14220277Y-13724686D02*
X14210753Y-13705638D01*
X14210753Y-13705638D02*
X14201229Y-13667543D01*
X14201229Y-13667543D02*
X14201229Y-13619924D01*
X14201229Y-13619924D02*
X14210753Y-13581829D01*
X14210753Y-13581829D02*
X14220277Y-13562781D01*
X14220277Y-13562781D02*
X14229801Y-13553258D01*
X14229801Y-13553258D02*
X14248848Y-13543734D01*
X14382182Y-13543734D02*
X14505991Y-13543734D01*
X14505991Y-13543734D02*
X14439325Y-13619924D01*
X14439325Y-13619924D02*
X14467896Y-13619924D01*
X14467896Y-13619924D02*
X14486944Y-13629448D01*
X14486944Y-13629448D02*
X14496467Y-13638972D01*
X14496467Y-13638972D02*
X14505991Y-13658019D01*
X14505991Y-13658019D02*
X14505991Y-13705638D01*
X14505991Y-13705638D02*
X14496467Y-13724686D01*
X14496467Y-13724686D02*
X14486944Y-13734210D01*
X14486944Y-13734210D02*
X14467896Y-13743734D01*
X14467896Y-13743734D02*
X14410753Y-13743734D01*
X14410753Y-13743734D02*
X14391706Y-13734210D01*
X14391706Y-13734210D02*
X14382182Y-13724686D01*
X14696467Y-13743734D02*
X14582182Y-13743734D01*
X14639325Y-13743734D02*
X14639325Y-13543734D01*
X14639325Y-13543734D02*
X14620277Y-13572305D01*
X14620277Y-13572305D02*
X14601229Y-13591353D01*
X14601229Y-13591353D02*
X14582182Y-13600877D01*
X14877420Y-13543734D02*
X14782182Y-13543734D01*
X14782182Y-13543734D02*
X14772658Y-13638972D01*
X14772658Y-13638972D02*
X14782182Y-13629448D01*
X14782182Y-13629448D02*
X14801229Y-13619924D01*
X14801229Y-13619924D02*
X14848848Y-13619924D01*
X14848848Y-13619924D02*
X14867896Y-13629448D01*
X14867896Y-13629448D02*
X14877420Y-13638972D01*
X14877420Y-13638972D02*
X14886944Y-13658019D01*
X14886944Y-13658019D02*
X14886944Y-13705638D01*
X14886944Y-13705638D02*
X14877420Y-13724686D01*
X14877420Y-13724686D02*
X14867896Y-13734210D01*
X14867896Y-13734210D02*
X14848848Y-13743734D01*
X14848848Y-13743734D02*
X14801229Y-13743734D01*
X14801229Y-13743734D02*
X14782182Y-13734210D01*
X14782182Y-13734210D02*
X14772658Y-13724686D01*
X14963134Y-13543734D02*
X14963134Y-13581829D01*
X15039325Y-13543734D02*
X15039325Y-13581829D01*
X15334563Y-13819924D02*
X15325039Y-13810400D01*
X15325039Y-13810400D02*
X15305991Y-13781829D01*
X15305991Y-13781829D02*
X15296468Y-13762781D01*
X15296468Y-13762781D02*
X15286944Y-13734210D01*
X15286944Y-13734210D02*
X15277420Y-13686591D01*
X15277420Y-13686591D02*
X15277420Y-13648496D01*
X15277420Y-13648496D02*
X15286944Y-13600877D01*
X15286944Y-13600877D02*
X15296468Y-13572305D01*
X15296468Y-13572305D02*
X15305991Y-13553258D01*
X15305991Y-13553258D02*
X15325039Y-13524686D01*
X15325039Y-13524686D02*
X15334563Y-13515162D01*
X15515515Y-13743734D02*
X15401229Y-13743734D01*
X15458372Y-13743734D02*
X15458372Y-13543734D01*
X15458372Y-13543734D02*
X15439325Y-13572305D01*
X15439325Y-13572305D02*
X15420277Y-13591353D01*
X15420277Y-13591353D02*
X15401229Y-13600877D01*
X15686944Y-13610400D02*
X15686944Y-13743734D01*
X15639325Y-13534210D02*
X15591706Y-13677067D01*
X15591706Y-13677067D02*
X15715515Y-13677067D01*
X15944087Y-13743734D02*
X15944087Y-13543734D01*
X16029801Y-13743734D02*
X16029801Y-13638972D01*
X16029801Y-13638972D02*
X16020277Y-13619924D01*
X16020277Y-13619924D02*
X16001230Y-13610400D01*
X16001230Y-13610400D02*
X15972658Y-13610400D01*
X15972658Y-13610400D02*
X15953610Y-13619924D01*
X15953610Y-13619924D02*
X15944087Y-13629448D01*
X16153610Y-13743734D02*
X16134563Y-13734210D01*
X16134563Y-13734210D02*
X16125039Y-13724686D01*
X16125039Y-13724686D02*
X16115515Y-13705638D01*
X16115515Y-13705638D02*
X16115515Y-13648496D01*
X16115515Y-13648496D02*
X16125039Y-13629448D01*
X16125039Y-13629448D02*
X16134563Y-13619924D01*
X16134563Y-13619924D02*
X16153610Y-13610400D01*
X16153610Y-13610400D02*
X16182182Y-13610400D01*
X16182182Y-13610400D02*
X16201230Y-13619924D01*
X16201230Y-13619924D02*
X16210753Y-13629448D01*
X16210753Y-13629448D02*
X16220277Y-13648496D01*
X16220277Y-13648496D02*
X16220277Y-13705638D01*
X16220277Y-13705638D02*
X16210753Y-13724686D01*
X16210753Y-13724686D02*
X16201230Y-13734210D01*
X16201230Y-13734210D02*
X16182182Y-13743734D01*
X16182182Y-13743734D02*
X16153610Y-13743734D01*
X16334563Y-13743734D02*
X16315515Y-13734210D01*
X16315515Y-13734210D02*
X16305991Y-13715162D01*
X16305991Y-13715162D02*
X16305991Y-13543734D01*
X16486944Y-13734210D02*
X16467896Y-13743734D01*
X16467896Y-13743734D02*
X16429801Y-13743734D01*
X16429801Y-13743734D02*
X16410753Y-13734210D01*
X16410753Y-13734210D02*
X16401230Y-13715162D01*
X16401230Y-13715162D02*
X16401230Y-13638972D01*
X16401230Y-13638972D02*
X16410753Y-13619924D01*
X16410753Y-13619924D02*
X16429801Y-13610400D01*
X16429801Y-13610400D02*
X16467896Y-13610400D01*
X16467896Y-13610400D02*
X16486944Y-13619924D01*
X16486944Y-13619924D02*
X16496468Y-13638972D01*
X16496468Y-13638972D02*
X16496468Y-13658019D01*
X16496468Y-13658019D02*
X16401230Y-13677067D01*
X16572658Y-13734210D02*
X16591706Y-13743734D01*
X16591706Y-13743734D02*
X16629801Y-13743734D01*
X16629801Y-13743734D02*
X16648849Y-13734210D01*
X16648849Y-13734210D02*
X16658372Y-13715162D01*
X16658372Y-13715162D02*
X16658372Y-13705638D01*
X16658372Y-13705638D02*
X16648849Y-13686591D01*
X16648849Y-13686591D02*
X16629801Y-13677067D01*
X16629801Y-13677067D02*
X16601230Y-13677067D01*
X16601230Y-13677067D02*
X16582182Y-13667543D01*
X16582182Y-13667543D02*
X16572658Y-13648496D01*
X16572658Y-13648496D02*
X16572658Y-13638972D01*
X16572658Y-13638972D02*
X16582182Y-13619924D01*
X16582182Y-13619924D02*
X16601230Y-13610400D01*
X16601230Y-13610400D02*
X16629801Y-13610400D01*
X16629801Y-13610400D02*
X16648849Y-13619924D01*
X16725039Y-13819924D02*
X16734563Y-13810400D01*
X16734563Y-13810400D02*
X16753611Y-13781829D01*
X16753611Y-13781829D02*
X16763134Y-13762781D01*
X16763134Y-13762781D02*
X16772658Y-13734210D01*
X16772658Y-13734210D02*
X16782182Y-13686591D01*
X16782182Y-13686591D02*
X16782182Y-13648496D01*
X16782182Y-13648496D02*
X16772658Y-13600877D01*
X16772658Y-13600877D02*
X16763134Y-13572305D01*
X16763134Y-13572305D02*
X16753611Y-13553258D01*
X16753611Y-13553258D02*
X16734563Y-13524686D01*
X16734563Y-13524686D02*
X16725039Y-13515162D01*
D12*
X11746320Y-13948070D02*
X11746320Y-13884430D01*
X11682680Y-13884430D01*
X11682680Y-13948070D01*
X11746320Y-13948070D01*
D11*
X12058372Y-13807734D02*
X12077420Y-13807734D01*
X12077420Y-13807734D02*
X12096467Y-13817258D01*
X12096467Y-13817258D02*
X12105991Y-13826781D01*
X12105991Y-13826781D02*
X12115515Y-13845829D01*
X12115515Y-13845829D02*
X12125039Y-13883924D01*
X12125039Y-13883924D02*
X12125039Y-13931543D01*
X12125039Y-13931543D02*
X12115515Y-13969638D01*
X12115515Y-13969638D02*
X12105991Y-13988686D01*
X12105991Y-13988686D02*
X12096467Y-13998210D01*
X12096467Y-13998210D02*
X12077420Y-14007734D01*
X12077420Y-14007734D02*
X12058372Y-14007734D01*
X12058372Y-14007734D02*
X12039324Y-13998210D01*
X12039324Y-13998210D02*
X12029801Y-13988686D01*
X12029801Y-13988686D02*
X12020277Y-13969638D01*
X12020277Y-13969638D02*
X12010753Y-13931543D01*
X12010753Y-13931543D02*
X12010753Y-13883924D01*
X12010753Y-13883924D02*
X12020277Y-13845829D01*
X12020277Y-13845829D02*
X12029801Y-13826781D01*
X12029801Y-13826781D02*
X12039324Y-13817258D01*
X12039324Y-13817258D02*
X12058372Y-13807734D01*
X12210753Y-13988686D02*
X12220277Y-13998210D01*
X12220277Y-13998210D02*
X12210753Y-14007734D01*
X12210753Y-14007734D02*
X12201229Y-13998210D01*
X12201229Y-13998210D02*
X12210753Y-13988686D01*
X12210753Y-13988686D02*
X12210753Y-14007734D01*
X12315515Y-14007734D02*
X12353610Y-14007734D01*
X12353610Y-14007734D02*
X12372658Y-13998210D01*
X12372658Y-13998210D02*
X12382182Y-13988686D01*
X12382182Y-13988686D02*
X12401229Y-13960115D01*
X12401229Y-13960115D02*
X12410753Y-13922019D01*
X12410753Y-13922019D02*
X12410753Y-13845829D01*
X12410753Y-13845829D02*
X12401229Y-13826781D01*
X12401229Y-13826781D02*
X12391705Y-13817258D01*
X12391705Y-13817258D02*
X12372658Y-13807734D01*
X12372658Y-13807734D02*
X12334562Y-13807734D01*
X12334562Y-13807734D02*
X12315515Y-13817258D01*
X12315515Y-13817258D02*
X12305991Y-13826781D01*
X12305991Y-13826781D02*
X12296467Y-13845829D01*
X12296467Y-13845829D02*
X12296467Y-13893448D01*
X12296467Y-13893448D02*
X12305991Y-13912496D01*
X12305991Y-13912496D02*
X12315515Y-13922019D01*
X12315515Y-13922019D02*
X12334562Y-13931543D01*
X12334562Y-13931543D02*
X12372658Y-13931543D01*
X12372658Y-13931543D02*
X12391705Y-13922019D01*
X12391705Y-13922019D02*
X12401229Y-13912496D01*
X12401229Y-13912496D02*
X12410753Y-13893448D01*
X12534562Y-13807734D02*
X12553610Y-13807734D01*
X12553610Y-13807734D02*
X12572658Y-13817258D01*
X12572658Y-13817258D02*
X12582182Y-13826781D01*
X12582182Y-13826781D02*
X12591705Y-13845829D01*
X12591705Y-13845829D02*
X12601229Y-13883924D01*
X12601229Y-13883924D02*
X12601229Y-13931543D01*
X12601229Y-13931543D02*
X12591705Y-13969638D01*
X12591705Y-13969638D02*
X12582182Y-13988686D01*
X12582182Y-13988686D02*
X12572658Y-13998210D01*
X12572658Y-13998210D02*
X12553610Y-14007734D01*
X12553610Y-14007734D02*
X12534562Y-14007734D01*
X12534562Y-14007734D02*
X12515515Y-13998210D01*
X12515515Y-13998210D02*
X12505991Y-13988686D01*
X12505991Y-13988686D02*
X12496467Y-13969638D01*
X12496467Y-13969638D02*
X12486943Y-13931543D01*
X12486943Y-13931543D02*
X12486943Y-13883924D01*
X12486943Y-13883924D02*
X12496467Y-13845829D01*
X12496467Y-13845829D02*
X12505991Y-13826781D01*
X12505991Y-13826781D02*
X12515515Y-13817258D01*
X12515515Y-13817258D02*
X12534562Y-13807734D01*
X12725039Y-13807734D02*
X12744086Y-13807734D01*
X12744086Y-13807734D02*
X12763134Y-13817258D01*
X12763134Y-13817258D02*
X12772658Y-13826781D01*
X12772658Y-13826781D02*
X12782182Y-13845829D01*
X12782182Y-13845829D02*
X12791705Y-13883924D01*
X12791705Y-13883924D02*
X12791705Y-13931543D01*
X12791705Y-13931543D02*
X12782182Y-13969638D01*
X12782182Y-13969638D02*
X12772658Y-13988686D01*
X12772658Y-13988686D02*
X12763134Y-13998210D01*
X12763134Y-13998210D02*
X12744086Y-14007734D01*
X12744086Y-14007734D02*
X12725039Y-14007734D01*
X12725039Y-14007734D02*
X12705991Y-13998210D01*
X12705991Y-13998210D02*
X12696467Y-13988686D01*
X12696467Y-13988686D02*
X12686943Y-13969638D01*
X12686943Y-13969638D02*
X12677420Y-13931543D01*
X12677420Y-13931543D02*
X12677420Y-13883924D01*
X12677420Y-13883924D02*
X12686943Y-13845829D01*
X12686943Y-13845829D02*
X12696467Y-13826781D01*
X12696467Y-13826781D02*
X12705991Y-13817258D01*
X12705991Y-13817258D02*
X12725039Y-13807734D01*
X12877420Y-14007734D02*
X12877420Y-13874400D01*
X12877420Y-13893448D02*
X12886943Y-13883924D01*
X12886943Y-13883924D02*
X12905991Y-13874400D01*
X12905991Y-13874400D02*
X12934563Y-13874400D01*
X12934563Y-13874400D02*
X12953610Y-13883924D01*
X12953610Y-13883924D02*
X12963134Y-13902972D01*
X12963134Y-13902972D02*
X12963134Y-14007734D01*
X12963134Y-13902972D02*
X12972658Y-13883924D01*
X12972658Y-13883924D02*
X12991705Y-13874400D01*
X12991705Y-13874400D02*
X13020277Y-13874400D01*
X13020277Y-13874400D02*
X13039324Y-13883924D01*
X13039324Y-13883924D02*
X13048848Y-13902972D01*
X13048848Y-13902972D02*
X13048848Y-14007734D01*
X13144086Y-14007734D02*
X13144086Y-13874400D01*
X13144086Y-13893448D02*
X13153610Y-13883924D01*
X13153610Y-13883924D02*
X13172658Y-13874400D01*
X13172658Y-13874400D02*
X13201229Y-13874400D01*
X13201229Y-13874400D02*
X13220277Y-13883924D01*
X13220277Y-13883924D02*
X13229801Y-13902972D01*
X13229801Y-13902972D02*
X13229801Y-14007734D01*
X13229801Y-13902972D02*
X13239324Y-13883924D01*
X13239324Y-13883924D02*
X13258372Y-13874400D01*
X13258372Y-13874400D02*
X13286943Y-13874400D01*
X13286943Y-13874400D02*
X13305991Y-13883924D01*
X13305991Y-13883924D02*
X13315515Y-13902972D01*
X13315515Y-13902972D02*
X13315515Y-14007734D01*
X13705991Y-13798210D02*
X13534563Y-14055353D01*
X13963134Y-13807734D02*
X13982182Y-13807734D01*
X13982182Y-13807734D02*
X14001229Y-13817258D01*
X14001229Y-13817258D02*
X14010753Y-13826781D01*
X14010753Y-13826781D02*
X14020277Y-13845829D01*
X14020277Y-13845829D02*
X14029801Y-13883924D01*
X14029801Y-13883924D02*
X14029801Y-13931543D01*
X14029801Y-13931543D02*
X14020277Y-13969638D01*
X14020277Y-13969638D02*
X14010753Y-13988686D01*
X14010753Y-13988686D02*
X14001229Y-13998210D01*
X14001229Y-13998210D02*
X13982182Y-14007734D01*
X13982182Y-14007734D02*
X13963134Y-14007734D01*
X13963134Y-14007734D02*
X13944086Y-13998210D01*
X13944086Y-13998210D02*
X13934563Y-13988686D01*
X13934563Y-13988686D02*
X13925039Y-13969638D01*
X13925039Y-13969638D02*
X13915515Y-13931543D01*
X13915515Y-13931543D02*
X13915515Y-13883924D01*
X13915515Y-13883924D02*
X13925039Y-13845829D01*
X13925039Y-13845829D02*
X13934563Y-13826781D01*
X13934563Y-13826781D02*
X13944086Y-13817258D01*
X13944086Y-13817258D02*
X13963134Y-13807734D01*
X14115515Y-13988686D02*
X14125039Y-13998210D01*
X14125039Y-13998210D02*
X14115515Y-14007734D01*
X14115515Y-14007734D02*
X14105991Y-13998210D01*
X14105991Y-13998210D02*
X14115515Y-13988686D01*
X14115515Y-13988686D02*
X14115515Y-14007734D01*
X14248848Y-13807734D02*
X14267896Y-13807734D01*
X14267896Y-13807734D02*
X14286944Y-13817258D01*
X14286944Y-13817258D02*
X14296467Y-13826781D01*
X14296467Y-13826781D02*
X14305991Y-13845829D01*
X14305991Y-13845829D02*
X14315515Y-13883924D01*
X14315515Y-13883924D02*
X14315515Y-13931543D01*
X14315515Y-13931543D02*
X14305991Y-13969638D01*
X14305991Y-13969638D02*
X14296467Y-13988686D01*
X14296467Y-13988686D02*
X14286944Y-13998210D01*
X14286944Y-13998210D02*
X14267896Y-14007734D01*
X14267896Y-14007734D02*
X14248848Y-14007734D01*
X14248848Y-14007734D02*
X14229801Y-13998210D01*
X14229801Y-13998210D02*
X14220277Y-13988686D01*
X14220277Y-13988686D02*
X14210753Y-13969638D01*
X14210753Y-13969638D02*
X14201229Y-13931543D01*
X14201229Y-13931543D02*
X14201229Y-13883924D01*
X14201229Y-13883924D02*
X14210753Y-13845829D01*
X14210753Y-13845829D02*
X14220277Y-13826781D01*
X14220277Y-13826781D02*
X14229801Y-13817258D01*
X14229801Y-13817258D02*
X14248848Y-13807734D01*
X14382182Y-13807734D02*
X14505991Y-13807734D01*
X14505991Y-13807734D02*
X14439325Y-13883924D01*
X14439325Y-13883924D02*
X14467896Y-13883924D01*
X14467896Y-13883924D02*
X14486944Y-13893448D01*
X14486944Y-13893448D02*
X14496467Y-13902972D01*
X14496467Y-13902972D02*
X14505991Y-13922019D01*
X14505991Y-13922019D02*
X14505991Y-13969638D01*
X14505991Y-13969638D02*
X14496467Y-13988686D01*
X14496467Y-13988686D02*
X14486944Y-13998210D01*
X14486944Y-13998210D02*
X14467896Y-14007734D01*
X14467896Y-14007734D02*
X14410753Y-14007734D01*
X14410753Y-14007734D02*
X14391706Y-13998210D01*
X14391706Y-13998210D02*
X14382182Y-13988686D01*
X14686944Y-13807734D02*
X14591706Y-13807734D01*
X14591706Y-13807734D02*
X14582182Y-13902972D01*
X14582182Y-13902972D02*
X14591706Y-13893448D01*
X14591706Y-13893448D02*
X14610753Y-13883924D01*
X14610753Y-13883924D02*
X14658372Y-13883924D01*
X14658372Y-13883924D02*
X14677420Y-13893448D01*
X14677420Y-13893448D02*
X14686944Y-13902972D01*
X14686944Y-13902972D02*
X14696467Y-13922019D01*
X14696467Y-13922019D02*
X14696467Y-13969638D01*
X14696467Y-13969638D02*
X14686944Y-13988686D01*
X14686944Y-13988686D02*
X14677420Y-13998210D01*
X14677420Y-13998210D02*
X14658372Y-14007734D01*
X14658372Y-14007734D02*
X14610753Y-14007734D01*
X14610753Y-14007734D02*
X14591706Y-13998210D01*
X14591706Y-13998210D02*
X14582182Y-13988686D01*
X14867896Y-13874400D02*
X14867896Y-14007734D01*
X14820277Y-13798210D02*
X14772658Y-13941067D01*
X14772658Y-13941067D02*
X14896467Y-13941067D01*
X14963134Y-13807734D02*
X14963134Y-13845829D01*
X15039325Y-13807734D02*
X15039325Y-13845829D01*
X15334563Y-14083924D02*
X15325039Y-14074400D01*
X15325039Y-14074400D02*
X15305991Y-14045829D01*
X15305991Y-14045829D02*
X15296468Y-14026781D01*
X15296468Y-14026781D02*
X15286944Y-13998210D01*
X15286944Y-13998210D02*
X15277420Y-13950591D01*
X15277420Y-13950591D02*
X15277420Y-13912496D01*
X15277420Y-13912496D02*
X15286944Y-13864877D01*
X15286944Y-13864877D02*
X15296468Y-13836305D01*
X15296468Y-13836305D02*
X15305991Y-13817258D01*
X15305991Y-13817258D02*
X15325039Y-13788686D01*
X15325039Y-13788686D02*
X15334563Y-13779162D01*
X15401229Y-13826781D02*
X15410753Y-13817258D01*
X15410753Y-13817258D02*
X15429801Y-13807734D01*
X15429801Y-13807734D02*
X15477420Y-13807734D01*
X15477420Y-13807734D02*
X15496468Y-13817258D01*
X15496468Y-13817258D02*
X15505991Y-13826781D01*
X15505991Y-13826781D02*
X15515515Y-13845829D01*
X15515515Y-13845829D02*
X15515515Y-13864877D01*
X15515515Y-13864877D02*
X15505991Y-13893448D01*
X15505991Y-13893448D02*
X15391706Y-14007734D01*
X15391706Y-14007734D02*
X15515515Y-14007734D01*
X15753610Y-14007734D02*
X15753610Y-13807734D01*
X15839325Y-14007734D02*
X15839325Y-13902972D01*
X15839325Y-13902972D02*
X15829801Y-13883924D01*
X15829801Y-13883924D02*
X15810753Y-13874400D01*
X15810753Y-13874400D02*
X15782182Y-13874400D01*
X15782182Y-13874400D02*
X15763134Y-13883924D01*
X15763134Y-13883924D02*
X15753610Y-13893448D01*
X15963134Y-14007734D02*
X15944087Y-13998210D01*
X15944087Y-13998210D02*
X15934563Y-13988686D01*
X15934563Y-13988686D02*
X15925039Y-13969638D01*
X15925039Y-13969638D02*
X15925039Y-13912496D01*
X15925039Y-13912496D02*
X15934563Y-13893448D01*
X15934563Y-13893448D02*
X15944087Y-13883924D01*
X15944087Y-13883924D02*
X15963134Y-13874400D01*
X15963134Y-13874400D02*
X15991706Y-13874400D01*
X15991706Y-13874400D02*
X16010753Y-13883924D01*
X16010753Y-13883924D02*
X16020277Y-13893448D01*
X16020277Y-13893448D02*
X16029801Y-13912496D01*
X16029801Y-13912496D02*
X16029801Y-13969638D01*
X16029801Y-13969638D02*
X16020277Y-13988686D01*
X16020277Y-13988686D02*
X16010753Y-13998210D01*
X16010753Y-13998210D02*
X15991706Y-14007734D01*
X15991706Y-14007734D02*
X15963134Y-14007734D01*
X16144087Y-14007734D02*
X16125039Y-13998210D01*
X16125039Y-13998210D02*
X16115515Y-13979162D01*
X16115515Y-13979162D02*
X16115515Y-13807734D01*
X16296468Y-13998210D02*
X16277420Y-14007734D01*
X16277420Y-14007734D02*
X16239325Y-14007734D01*
X16239325Y-14007734D02*
X16220277Y-13998210D01*
X16220277Y-13998210D02*
X16210753Y-13979162D01*
X16210753Y-13979162D02*
X16210753Y-13902972D01*
X16210753Y-13902972D02*
X16220277Y-13883924D01*
X16220277Y-13883924D02*
X16239325Y-13874400D01*
X16239325Y-13874400D02*
X16277420Y-13874400D01*
X16277420Y-13874400D02*
X16296468Y-13883924D01*
X16296468Y-13883924D02*
X16305991Y-13902972D01*
X16305991Y-13902972D02*
X16305991Y-13922019D01*
X16305991Y-13922019D02*
X16210753Y-13941067D01*
X16382182Y-13998210D02*
X16401230Y-14007734D01*
X16401230Y-14007734D02*
X16439325Y-14007734D01*
X16439325Y-14007734D02*
X16458372Y-13998210D01*
X16458372Y-13998210D02*
X16467896Y-13979162D01*
X16467896Y-13979162D02*
X16467896Y-13969638D01*
X16467896Y-13969638D02*
X16458372Y-13950591D01*
X16458372Y-13950591D02*
X16439325Y-13941067D01*
X16439325Y-13941067D02*
X16410753Y-13941067D01*
X16410753Y-13941067D02*
X16391706Y-13931543D01*
X16391706Y-13931543D02*
X16382182Y-13912496D01*
X16382182Y-13912496D02*
X16382182Y-13902972D01*
X16382182Y-13902972D02*
X16391706Y-13883924D01*
X16391706Y-13883924D02*
X16410753Y-13874400D01*
X16410753Y-13874400D02*
X16439325Y-13874400D01*
X16439325Y-13874400D02*
X16458372Y-13883924D01*
X16534563Y-14083924D02*
X16544087Y-14074400D01*
X16544087Y-14074400D02*
X16563134Y-14045829D01*
X16563134Y-14045829D02*
X16572658Y-14026781D01*
X16572658Y-14026781D02*
X16582182Y-13998210D01*
X16582182Y-13998210D02*
X16591706Y-13950591D01*
X16591706Y-13950591D02*
X16591706Y-13912496D01*
X16591706Y-13912496D02*
X16582182Y-13864877D01*
X16582182Y-13864877D02*
X16572658Y-13836305D01*
X16572658Y-13836305D02*
X16563134Y-13817258D01*
X16563134Y-13817258D02*
X16544087Y-13788686D01*
X16544087Y-13788686D02*
X16534563Y-13779162D01*
D12*
X11709500Y-14230250D02*
X11759500Y-14180250D01*
X11709500Y-14130250D01*
X11659500Y-14180250D01*
X11709500Y-14230250D01*
D11*
X12125039Y-14271734D02*
X12010753Y-14271734D01*
X12067896Y-14271734D02*
X12067896Y-14071734D01*
X12067896Y-14071734D02*
X12048848Y-14100305D01*
X12048848Y-14100305D02*
X12029801Y-14119353D01*
X12029801Y-14119353D02*
X12010753Y-14128877D01*
X12210753Y-14252686D02*
X12220277Y-14262210D01*
X12220277Y-14262210D02*
X12210753Y-14271734D01*
X12210753Y-14271734D02*
X12201229Y-14262210D01*
X12201229Y-14262210D02*
X12210753Y-14252686D01*
X12210753Y-14252686D02*
X12210753Y-14271734D01*
X12344086Y-14071734D02*
X12363134Y-14071734D01*
X12363134Y-14071734D02*
X12382182Y-14081258D01*
X12382182Y-14081258D02*
X12391705Y-14090781D01*
X12391705Y-14090781D02*
X12401229Y-14109829D01*
X12401229Y-14109829D02*
X12410753Y-14147924D01*
X12410753Y-14147924D02*
X12410753Y-14195543D01*
X12410753Y-14195543D02*
X12401229Y-14233638D01*
X12401229Y-14233638D02*
X12391705Y-14252686D01*
X12391705Y-14252686D02*
X12382182Y-14262210D01*
X12382182Y-14262210D02*
X12363134Y-14271734D01*
X12363134Y-14271734D02*
X12344086Y-14271734D01*
X12344086Y-14271734D02*
X12325039Y-14262210D01*
X12325039Y-14262210D02*
X12315515Y-14252686D01*
X12315515Y-14252686D02*
X12305991Y-14233638D01*
X12305991Y-14233638D02*
X12296467Y-14195543D01*
X12296467Y-14195543D02*
X12296467Y-14147924D01*
X12296467Y-14147924D02*
X12305991Y-14109829D01*
X12305991Y-14109829D02*
X12315515Y-14090781D01*
X12315515Y-14090781D02*
X12325039Y-14081258D01*
X12325039Y-14081258D02*
X12344086Y-14071734D01*
X12534562Y-14071734D02*
X12553610Y-14071734D01*
X12553610Y-14071734D02*
X12572658Y-14081258D01*
X12572658Y-14081258D02*
X12582182Y-14090781D01*
X12582182Y-14090781D02*
X12591705Y-14109829D01*
X12591705Y-14109829D02*
X12601229Y-14147924D01*
X12601229Y-14147924D02*
X12601229Y-14195543D01*
X12601229Y-14195543D02*
X12591705Y-14233638D01*
X12591705Y-14233638D02*
X12582182Y-14252686D01*
X12582182Y-14252686D02*
X12572658Y-14262210D01*
X12572658Y-14262210D02*
X12553610Y-14271734D01*
X12553610Y-14271734D02*
X12534562Y-14271734D01*
X12534562Y-14271734D02*
X12515515Y-14262210D01*
X12515515Y-14262210D02*
X12505991Y-14252686D01*
X12505991Y-14252686D02*
X12496467Y-14233638D01*
X12496467Y-14233638D02*
X12486943Y-14195543D01*
X12486943Y-14195543D02*
X12486943Y-14147924D01*
X12486943Y-14147924D02*
X12496467Y-14109829D01*
X12496467Y-14109829D02*
X12505991Y-14090781D01*
X12505991Y-14090781D02*
X12515515Y-14081258D01*
X12515515Y-14081258D02*
X12534562Y-14071734D01*
X12725039Y-14071734D02*
X12744086Y-14071734D01*
X12744086Y-14071734D02*
X12763134Y-14081258D01*
X12763134Y-14081258D02*
X12772658Y-14090781D01*
X12772658Y-14090781D02*
X12782182Y-14109829D01*
X12782182Y-14109829D02*
X12791705Y-14147924D01*
X12791705Y-14147924D02*
X12791705Y-14195543D01*
X12791705Y-14195543D02*
X12782182Y-14233638D01*
X12782182Y-14233638D02*
X12772658Y-14252686D01*
X12772658Y-14252686D02*
X12763134Y-14262210D01*
X12763134Y-14262210D02*
X12744086Y-14271734D01*
X12744086Y-14271734D02*
X12725039Y-14271734D01*
X12725039Y-14271734D02*
X12705991Y-14262210D01*
X12705991Y-14262210D02*
X12696467Y-14252686D01*
X12696467Y-14252686D02*
X12686943Y-14233638D01*
X12686943Y-14233638D02*
X12677420Y-14195543D01*
X12677420Y-14195543D02*
X12677420Y-14147924D01*
X12677420Y-14147924D02*
X12686943Y-14109829D01*
X12686943Y-14109829D02*
X12696467Y-14090781D01*
X12696467Y-14090781D02*
X12705991Y-14081258D01*
X12705991Y-14081258D02*
X12725039Y-14071734D01*
X12877420Y-14271734D02*
X12877420Y-14138400D01*
X12877420Y-14157448D02*
X12886943Y-14147924D01*
X12886943Y-14147924D02*
X12905991Y-14138400D01*
X12905991Y-14138400D02*
X12934563Y-14138400D01*
X12934563Y-14138400D02*
X12953610Y-14147924D01*
X12953610Y-14147924D02*
X12963134Y-14166972D01*
X12963134Y-14166972D02*
X12963134Y-14271734D01*
X12963134Y-14166972D02*
X12972658Y-14147924D01*
X12972658Y-14147924D02*
X12991705Y-14138400D01*
X12991705Y-14138400D02*
X13020277Y-14138400D01*
X13020277Y-14138400D02*
X13039324Y-14147924D01*
X13039324Y-14147924D02*
X13048848Y-14166972D01*
X13048848Y-14166972D02*
X13048848Y-14271734D01*
X13144086Y-14271734D02*
X13144086Y-14138400D01*
X13144086Y-14157448D02*
X13153610Y-14147924D01*
X13153610Y-14147924D02*
X13172658Y-14138400D01*
X13172658Y-14138400D02*
X13201229Y-14138400D01*
X13201229Y-14138400D02*
X13220277Y-14147924D01*
X13220277Y-14147924D02*
X13229801Y-14166972D01*
X13229801Y-14166972D02*
X13229801Y-14271734D01*
X13229801Y-14166972D02*
X13239324Y-14147924D01*
X13239324Y-14147924D02*
X13258372Y-14138400D01*
X13258372Y-14138400D02*
X13286943Y-14138400D01*
X13286943Y-14138400D02*
X13305991Y-14147924D01*
X13305991Y-14147924D02*
X13315515Y-14166972D01*
X13315515Y-14166972D02*
X13315515Y-14271734D01*
X13705991Y-14062210D02*
X13534563Y-14319353D01*
X13963134Y-14071734D02*
X13982182Y-14071734D01*
X13982182Y-14071734D02*
X14001229Y-14081258D01*
X14001229Y-14081258D02*
X14010753Y-14090781D01*
X14010753Y-14090781D02*
X14020277Y-14109829D01*
X14020277Y-14109829D02*
X14029801Y-14147924D01*
X14029801Y-14147924D02*
X14029801Y-14195543D01*
X14029801Y-14195543D02*
X14020277Y-14233638D01*
X14020277Y-14233638D02*
X14010753Y-14252686D01*
X14010753Y-14252686D02*
X14001229Y-14262210D01*
X14001229Y-14262210D02*
X13982182Y-14271734D01*
X13982182Y-14271734D02*
X13963134Y-14271734D01*
X13963134Y-14271734D02*
X13944086Y-14262210D01*
X13944086Y-14262210D02*
X13934563Y-14252686D01*
X13934563Y-14252686D02*
X13925039Y-14233638D01*
X13925039Y-14233638D02*
X13915515Y-14195543D01*
X13915515Y-14195543D02*
X13915515Y-14147924D01*
X13915515Y-14147924D02*
X13925039Y-14109829D01*
X13925039Y-14109829D02*
X13934563Y-14090781D01*
X13934563Y-14090781D02*
X13944086Y-14081258D01*
X13944086Y-14081258D02*
X13963134Y-14071734D01*
X14115515Y-14252686D02*
X14125039Y-14262210D01*
X14125039Y-14262210D02*
X14115515Y-14271734D01*
X14115515Y-14271734D02*
X14105991Y-14262210D01*
X14105991Y-14262210D02*
X14115515Y-14252686D01*
X14115515Y-14252686D02*
X14115515Y-14271734D01*
X14248848Y-14071734D02*
X14267896Y-14071734D01*
X14267896Y-14071734D02*
X14286944Y-14081258D01*
X14286944Y-14081258D02*
X14296467Y-14090781D01*
X14296467Y-14090781D02*
X14305991Y-14109829D01*
X14305991Y-14109829D02*
X14315515Y-14147924D01*
X14315515Y-14147924D02*
X14315515Y-14195543D01*
X14315515Y-14195543D02*
X14305991Y-14233638D01*
X14305991Y-14233638D02*
X14296467Y-14252686D01*
X14296467Y-14252686D02*
X14286944Y-14262210D01*
X14286944Y-14262210D02*
X14267896Y-14271734D01*
X14267896Y-14271734D02*
X14248848Y-14271734D01*
X14248848Y-14271734D02*
X14229801Y-14262210D01*
X14229801Y-14262210D02*
X14220277Y-14252686D01*
X14220277Y-14252686D02*
X14210753Y-14233638D01*
X14210753Y-14233638D02*
X14201229Y-14195543D01*
X14201229Y-14195543D02*
X14201229Y-14147924D01*
X14201229Y-14147924D02*
X14210753Y-14109829D01*
X14210753Y-14109829D02*
X14220277Y-14090781D01*
X14220277Y-14090781D02*
X14229801Y-14081258D01*
X14229801Y-14081258D02*
X14248848Y-14071734D01*
X14382182Y-14071734D02*
X14505991Y-14071734D01*
X14505991Y-14071734D02*
X14439325Y-14147924D01*
X14439325Y-14147924D02*
X14467896Y-14147924D01*
X14467896Y-14147924D02*
X14486944Y-14157448D01*
X14486944Y-14157448D02*
X14496467Y-14166972D01*
X14496467Y-14166972D02*
X14505991Y-14186019D01*
X14505991Y-14186019D02*
X14505991Y-14233638D01*
X14505991Y-14233638D02*
X14496467Y-14252686D01*
X14496467Y-14252686D02*
X14486944Y-14262210D01*
X14486944Y-14262210D02*
X14467896Y-14271734D01*
X14467896Y-14271734D02*
X14410753Y-14271734D01*
X14410753Y-14271734D02*
X14391706Y-14262210D01*
X14391706Y-14262210D02*
X14382182Y-14252686D01*
X14601229Y-14271734D02*
X14639325Y-14271734D01*
X14639325Y-14271734D02*
X14658372Y-14262210D01*
X14658372Y-14262210D02*
X14667896Y-14252686D01*
X14667896Y-14252686D02*
X14686944Y-14224115D01*
X14686944Y-14224115D02*
X14696467Y-14186019D01*
X14696467Y-14186019D02*
X14696467Y-14109829D01*
X14696467Y-14109829D02*
X14686944Y-14090781D01*
X14686944Y-14090781D02*
X14677420Y-14081258D01*
X14677420Y-14081258D02*
X14658372Y-14071734D01*
X14658372Y-14071734D02*
X14620277Y-14071734D01*
X14620277Y-14071734D02*
X14601229Y-14081258D01*
X14601229Y-14081258D02*
X14591706Y-14090781D01*
X14591706Y-14090781D02*
X14582182Y-14109829D01*
X14582182Y-14109829D02*
X14582182Y-14157448D01*
X14582182Y-14157448D02*
X14591706Y-14176496D01*
X14591706Y-14176496D02*
X14601229Y-14186019D01*
X14601229Y-14186019D02*
X14620277Y-14195543D01*
X14620277Y-14195543D02*
X14658372Y-14195543D01*
X14658372Y-14195543D02*
X14677420Y-14186019D01*
X14677420Y-14186019D02*
X14686944Y-14176496D01*
X14686944Y-14176496D02*
X14696467Y-14157448D01*
X14867896Y-14138400D02*
X14867896Y-14271734D01*
X14820277Y-14062210D02*
X14772658Y-14205067D01*
X14772658Y-14205067D02*
X14896467Y-14205067D01*
X14963134Y-14071734D02*
X14963134Y-14109829D01*
X15039325Y-14071734D02*
X15039325Y-14109829D01*
X15334563Y-14347924D02*
X15325039Y-14338400D01*
X15325039Y-14338400D02*
X15305991Y-14309829D01*
X15305991Y-14309829D02*
X15296468Y-14290781D01*
X15296468Y-14290781D02*
X15286944Y-14262210D01*
X15286944Y-14262210D02*
X15277420Y-14214591D01*
X15277420Y-14214591D02*
X15277420Y-14176496D01*
X15277420Y-14176496D02*
X15286944Y-14128877D01*
X15286944Y-14128877D02*
X15296468Y-14100305D01*
X15296468Y-14100305D02*
X15305991Y-14081258D01*
X15305991Y-14081258D02*
X15325039Y-14052686D01*
X15325039Y-14052686D02*
X15334563Y-14043162D01*
X15496468Y-14071734D02*
X15458372Y-14071734D01*
X15458372Y-14071734D02*
X15439325Y-14081258D01*
X15439325Y-14081258D02*
X15429801Y-14090781D01*
X15429801Y-14090781D02*
X15410753Y-14119353D01*
X15410753Y-14119353D02*
X15401229Y-14157448D01*
X15401229Y-14157448D02*
X15401229Y-14233638D01*
X15401229Y-14233638D02*
X15410753Y-14252686D01*
X15410753Y-14252686D02*
X15420277Y-14262210D01*
X15420277Y-14262210D02*
X15439325Y-14271734D01*
X15439325Y-14271734D02*
X15477420Y-14271734D01*
X15477420Y-14271734D02*
X15496468Y-14262210D01*
X15496468Y-14262210D02*
X15505991Y-14252686D01*
X15505991Y-14252686D02*
X15515515Y-14233638D01*
X15515515Y-14233638D02*
X15515515Y-14186019D01*
X15515515Y-14186019D02*
X15505991Y-14166972D01*
X15505991Y-14166972D02*
X15496468Y-14157448D01*
X15496468Y-14157448D02*
X15477420Y-14147924D01*
X15477420Y-14147924D02*
X15439325Y-14147924D01*
X15439325Y-14147924D02*
X15420277Y-14157448D01*
X15420277Y-14157448D02*
X15410753Y-14166972D01*
X15410753Y-14166972D02*
X15401229Y-14186019D01*
X15753610Y-14271734D02*
X15753610Y-14071734D01*
X15839325Y-14271734D02*
X15839325Y-14166972D01*
X15839325Y-14166972D02*
X15829801Y-14147924D01*
X15829801Y-14147924D02*
X15810753Y-14138400D01*
X15810753Y-14138400D02*
X15782182Y-14138400D01*
X15782182Y-14138400D02*
X15763134Y-14147924D01*
X15763134Y-14147924D02*
X15753610Y-14157448D01*
X15963134Y-14271734D02*
X15944087Y-14262210D01*
X15944087Y-14262210D02*
X15934563Y-14252686D01*
X15934563Y-14252686D02*
X15925039Y-14233638D01*
X15925039Y-14233638D02*
X15925039Y-14176496D01*
X15925039Y-14176496D02*
X15934563Y-14157448D01*
X15934563Y-14157448D02*
X15944087Y-14147924D01*
X15944087Y-14147924D02*
X15963134Y-14138400D01*
X15963134Y-14138400D02*
X15991706Y-14138400D01*
X15991706Y-14138400D02*
X16010753Y-14147924D01*
X16010753Y-14147924D02*
X16020277Y-14157448D01*
X16020277Y-14157448D02*
X16029801Y-14176496D01*
X16029801Y-14176496D02*
X16029801Y-14233638D01*
X16029801Y-14233638D02*
X16020277Y-14252686D01*
X16020277Y-14252686D02*
X16010753Y-14262210D01*
X16010753Y-14262210D02*
X15991706Y-14271734D01*
X15991706Y-14271734D02*
X15963134Y-14271734D01*
X16144087Y-14271734D02*
X16125039Y-14262210D01*
X16125039Y-14262210D02*
X16115515Y-14243162D01*
X16115515Y-14243162D02*
X16115515Y-14071734D01*
X16296468Y-14262210D02*
X16277420Y-14271734D01*
X16277420Y-14271734D02*
X16239325Y-14271734D01*
X16239325Y-14271734D02*
X16220277Y-14262210D01*
X16220277Y-14262210D02*
X16210753Y-14243162D01*
X16210753Y-14243162D02*
X16210753Y-14166972D01*
X16210753Y-14166972D02*
X16220277Y-14147924D01*
X16220277Y-14147924D02*
X16239325Y-14138400D01*
X16239325Y-14138400D02*
X16277420Y-14138400D01*
X16277420Y-14138400D02*
X16296468Y-14147924D01*
X16296468Y-14147924D02*
X16305991Y-14166972D01*
X16305991Y-14166972D02*
X16305991Y-14186019D01*
X16305991Y-14186019D02*
X16210753Y-14205067D01*
X16382182Y-14262210D02*
X16401230Y-14271734D01*
X16401230Y-14271734D02*
X16439325Y-14271734D01*
X16439325Y-14271734D02*
X16458372Y-14262210D01*
X16458372Y-14262210D02*
X16467896Y-14243162D01*
X16467896Y-14243162D02*
X16467896Y-14233638D01*
X16467896Y-14233638D02*
X16458372Y-14214591D01*
X16458372Y-14214591D02*
X16439325Y-14205067D01*
X16439325Y-14205067D02*
X16410753Y-14205067D01*
X16410753Y-14205067D02*
X16391706Y-14195543D01*
X16391706Y-14195543D02*
X16382182Y-14176496D01*
X16382182Y-14176496D02*
X16382182Y-14166972D01*
X16382182Y-14166972D02*
X16391706Y-14147924D01*
X16391706Y-14147924D02*
X16410753Y-14138400D01*
X16410753Y-14138400D02*
X16439325Y-14138400D01*
X16439325Y-14138400D02*
X16458372Y-14147924D01*
X16534563Y-14347924D02*
X16544087Y-14338400D01*
X16544087Y-14338400D02*
X16563134Y-14309829D01*
X16563134Y-14309829D02*
X16572658Y-14290781D01*
X16572658Y-14290781D02*
X16582182Y-14262210D01*
X16582182Y-14262210D02*
X16591706Y-14214591D01*
X16591706Y-14214591D02*
X16591706Y-14176496D01*
X16591706Y-14176496D02*
X16582182Y-14128877D01*
X16582182Y-14128877D02*
X16572658Y-14100305D01*
X16572658Y-14100305D02*
X16563134Y-14081258D01*
X16563134Y-14081258D02*
X16544087Y-14052686D01*
X16544087Y-14052686D02*
X16534563Y-14043162D01*
D13*
X11629500Y-14379250D02*
X11759500Y-14509250D01*
X11759500Y-14379250D02*
X11629500Y-14509250D01*
X11759500Y-14444250D02*
G75*
G02*
X11629500Y-14444250I-65000J0D01*
G01*
X11629500Y-14444250D02*
G75*
G02*
X11759500Y-14444250I65000J0D01*
G01*
D11*
X12125039Y-14535734D02*
X12010753Y-14535734D01*
X12067896Y-14535734D02*
X12067896Y-14335734D01*
X12067896Y-14335734D02*
X12048848Y-14364305D01*
X12048848Y-14364305D02*
X12029801Y-14383353D01*
X12029801Y-14383353D02*
X12010753Y-14392877D01*
X12210753Y-14516686D02*
X12220277Y-14526210D01*
X12220277Y-14526210D02*
X12210753Y-14535734D01*
X12210753Y-14535734D02*
X12201229Y-14526210D01*
X12201229Y-14526210D02*
X12210753Y-14516686D01*
X12210753Y-14516686D02*
X12210753Y-14535734D01*
X12286943Y-14335734D02*
X12410753Y-14335734D01*
X12410753Y-14335734D02*
X12344086Y-14411924D01*
X12344086Y-14411924D02*
X12372658Y-14411924D01*
X12372658Y-14411924D02*
X12391705Y-14421448D01*
X12391705Y-14421448D02*
X12401229Y-14430972D01*
X12401229Y-14430972D02*
X12410753Y-14450019D01*
X12410753Y-14450019D02*
X12410753Y-14497638D01*
X12410753Y-14497638D02*
X12401229Y-14516686D01*
X12401229Y-14516686D02*
X12391705Y-14526210D01*
X12391705Y-14526210D02*
X12372658Y-14535734D01*
X12372658Y-14535734D02*
X12315515Y-14535734D01*
X12315515Y-14535734D02*
X12296467Y-14526210D01*
X12296467Y-14526210D02*
X12286943Y-14516686D01*
X12534562Y-14335734D02*
X12553610Y-14335734D01*
X12553610Y-14335734D02*
X12572658Y-14345258D01*
X12572658Y-14345258D02*
X12582182Y-14354781D01*
X12582182Y-14354781D02*
X12591705Y-14373829D01*
X12591705Y-14373829D02*
X12601229Y-14411924D01*
X12601229Y-14411924D02*
X12601229Y-14459543D01*
X12601229Y-14459543D02*
X12591705Y-14497638D01*
X12591705Y-14497638D02*
X12582182Y-14516686D01*
X12582182Y-14516686D02*
X12572658Y-14526210D01*
X12572658Y-14526210D02*
X12553610Y-14535734D01*
X12553610Y-14535734D02*
X12534562Y-14535734D01*
X12534562Y-14535734D02*
X12515515Y-14526210D01*
X12515515Y-14526210D02*
X12505991Y-14516686D01*
X12505991Y-14516686D02*
X12496467Y-14497638D01*
X12496467Y-14497638D02*
X12486943Y-14459543D01*
X12486943Y-14459543D02*
X12486943Y-14411924D01*
X12486943Y-14411924D02*
X12496467Y-14373829D01*
X12496467Y-14373829D02*
X12505991Y-14354781D01*
X12505991Y-14354781D02*
X12515515Y-14345258D01*
X12515515Y-14345258D02*
X12534562Y-14335734D01*
X12725039Y-14335734D02*
X12744086Y-14335734D01*
X12744086Y-14335734D02*
X12763134Y-14345258D01*
X12763134Y-14345258D02*
X12772658Y-14354781D01*
X12772658Y-14354781D02*
X12782182Y-14373829D01*
X12782182Y-14373829D02*
X12791705Y-14411924D01*
X12791705Y-14411924D02*
X12791705Y-14459543D01*
X12791705Y-14459543D02*
X12782182Y-14497638D01*
X12782182Y-14497638D02*
X12772658Y-14516686D01*
X12772658Y-14516686D02*
X12763134Y-14526210D01*
X12763134Y-14526210D02*
X12744086Y-14535734D01*
X12744086Y-14535734D02*
X12725039Y-14535734D01*
X12725039Y-14535734D02*
X12705991Y-14526210D01*
X12705991Y-14526210D02*
X12696467Y-14516686D01*
X12696467Y-14516686D02*
X12686943Y-14497638D01*
X12686943Y-14497638D02*
X12677420Y-14459543D01*
X12677420Y-14459543D02*
X12677420Y-14411924D01*
X12677420Y-14411924D02*
X12686943Y-14373829D01*
X12686943Y-14373829D02*
X12696467Y-14354781D01*
X12696467Y-14354781D02*
X12705991Y-14345258D01*
X12705991Y-14345258D02*
X12725039Y-14335734D01*
X12877420Y-14535734D02*
X12877420Y-14402400D01*
X12877420Y-14421448D02*
X12886943Y-14411924D01*
X12886943Y-14411924D02*
X12905991Y-14402400D01*
X12905991Y-14402400D02*
X12934563Y-14402400D01*
X12934563Y-14402400D02*
X12953610Y-14411924D01*
X12953610Y-14411924D02*
X12963134Y-14430972D01*
X12963134Y-14430972D02*
X12963134Y-14535734D01*
X12963134Y-14430972D02*
X12972658Y-14411924D01*
X12972658Y-14411924D02*
X12991705Y-14402400D01*
X12991705Y-14402400D02*
X13020277Y-14402400D01*
X13020277Y-14402400D02*
X13039324Y-14411924D01*
X13039324Y-14411924D02*
X13048848Y-14430972D01*
X13048848Y-14430972D02*
X13048848Y-14535734D01*
X13144086Y-14535734D02*
X13144086Y-14402400D01*
X13144086Y-14421448D02*
X13153610Y-14411924D01*
X13153610Y-14411924D02*
X13172658Y-14402400D01*
X13172658Y-14402400D02*
X13201229Y-14402400D01*
X13201229Y-14402400D02*
X13220277Y-14411924D01*
X13220277Y-14411924D02*
X13229801Y-14430972D01*
X13229801Y-14430972D02*
X13229801Y-14535734D01*
X13229801Y-14430972D02*
X13239324Y-14411924D01*
X13239324Y-14411924D02*
X13258372Y-14402400D01*
X13258372Y-14402400D02*
X13286943Y-14402400D01*
X13286943Y-14402400D02*
X13305991Y-14411924D01*
X13305991Y-14411924D02*
X13315515Y-14430972D01*
X13315515Y-14430972D02*
X13315515Y-14535734D01*
X13705991Y-14326210D02*
X13534563Y-14583353D01*
X13963134Y-14335734D02*
X13982182Y-14335734D01*
X13982182Y-14335734D02*
X14001229Y-14345258D01*
X14001229Y-14345258D02*
X14010753Y-14354781D01*
X14010753Y-14354781D02*
X14020277Y-14373829D01*
X14020277Y-14373829D02*
X14029801Y-14411924D01*
X14029801Y-14411924D02*
X14029801Y-14459543D01*
X14029801Y-14459543D02*
X14020277Y-14497638D01*
X14020277Y-14497638D02*
X14010753Y-14516686D01*
X14010753Y-14516686D02*
X14001229Y-14526210D01*
X14001229Y-14526210D02*
X13982182Y-14535734D01*
X13982182Y-14535734D02*
X13963134Y-14535734D01*
X13963134Y-14535734D02*
X13944086Y-14526210D01*
X13944086Y-14526210D02*
X13934563Y-14516686D01*
X13934563Y-14516686D02*
X13925039Y-14497638D01*
X13925039Y-14497638D02*
X13915515Y-14459543D01*
X13915515Y-14459543D02*
X13915515Y-14411924D01*
X13915515Y-14411924D02*
X13925039Y-14373829D01*
X13925039Y-14373829D02*
X13934563Y-14354781D01*
X13934563Y-14354781D02*
X13944086Y-14345258D01*
X13944086Y-14345258D02*
X13963134Y-14335734D01*
X14115515Y-14516686D02*
X14125039Y-14526210D01*
X14125039Y-14526210D02*
X14115515Y-14535734D01*
X14115515Y-14535734D02*
X14105991Y-14526210D01*
X14105991Y-14526210D02*
X14115515Y-14516686D01*
X14115515Y-14516686D02*
X14115515Y-14535734D01*
X14248848Y-14335734D02*
X14267896Y-14335734D01*
X14267896Y-14335734D02*
X14286944Y-14345258D01*
X14286944Y-14345258D02*
X14296467Y-14354781D01*
X14296467Y-14354781D02*
X14305991Y-14373829D01*
X14305991Y-14373829D02*
X14315515Y-14411924D01*
X14315515Y-14411924D02*
X14315515Y-14459543D01*
X14315515Y-14459543D02*
X14305991Y-14497638D01*
X14305991Y-14497638D02*
X14296467Y-14516686D01*
X14296467Y-14516686D02*
X14286944Y-14526210D01*
X14286944Y-14526210D02*
X14267896Y-14535734D01*
X14267896Y-14535734D02*
X14248848Y-14535734D01*
X14248848Y-14535734D02*
X14229801Y-14526210D01*
X14229801Y-14526210D02*
X14220277Y-14516686D01*
X14220277Y-14516686D02*
X14210753Y-14497638D01*
X14210753Y-14497638D02*
X14201229Y-14459543D01*
X14201229Y-14459543D02*
X14201229Y-14411924D01*
X14201229Y-14411924D02*
X14210753Y-14373829D01*
X14210753Y-14373829D02*
X14220277Y-14354781D01*
X14220277Y-14354781D02*
X14229801Y-14345258D01*
X14229801Y-14345258D02*
X14248848Y-14335734D01*
X14496467Y-14335734D02*
X14401229Y-14335734D01*
X14401229Y-14335734D02*
X14391706Y-14430972D01*
X14391706Y-14430972D02*
X14401229Y-14421448D01*
X14401229Y-14421448D02*
X14420277Y-14411924D01*
X14420277Y-14411924D02*
X14467896Y-14411924D01*
X14467896Y-14411924D02*
X14486944Y-14421448D01*
X14486944Y-14421448D02*
X14496467Y-14430972D01*
X14496467Y-14430972D02*
X14505991Y-14450019D01*
X14505991Y-14450019D02*
X14505991Y-14497638D01*
X14505991Y-14497638D02*
X14496467Y-14516686D01*
X14496467Y-14516686D02*
X14486944Y-14526210D01*
X14486944Y-14526210D02*
X14467896Y-14535734D01*
X14467896Y-14535734D02*
X14420277Y-14535734D01*
X14420277Y-14535734D02*
X14401229Y-14526210D01*
X14401229Y-14526210D02*
X14391706Y-14516686D01*
X14696467Y-14535734D02*
X14582182Y-14535734D01*
X14639325Y-14535734D02*
X14639325Y-14335734D01*
X14639325Y-14335734D02*
X14620277Y-14364305D01*
X14620277Y-14364305D02*
X14601229Y-14383353D01*
X14601229Y-14383353D02*
X14582182Y-14392877D01*
X14772658Y-14354781D02*
X14782182Y-14345258D01*
X14782182Y-14345258D02*
X14801229Y-14335734D01*
X14801229Y-14335734D02*
X14848848Y-14335734D01*
X14848848Y-14335734D02*
X14867896Y-14345258D01*
X14867896Y-14345258D02*
X14877420Y-14354781D01*
X14877420Y-14354781D02*
X14886944Y-14373829D01*
X14886944Y-14373829D02*
X14886944Y-14392877D01*
X14886944Y-14392877D02*
X14877420Y-14421448D01*
X14877420Y-14421448D02*
X14763134Y-14535734D01*
X14763134Y-14535734D02*
X14886944Y-14535734D01*
X14963134Y-14335734D02*
X14963134Y-14373829D01*
X15039325Y-14335734D02*
X15039325Y-14373829D01*
X15334563Y-14611924D02*
X15325039Y-14602400D01*
X15325039Y-14602400D02*
X15305991Y-14573829D01*
X15305991Y-14573829D02*
X15296468Y-14554781D01*
X15296468Y-14554781D02*
X15286944Y-14526210D01*
X15286944Y-14526210D02*
X15277420Y-14478591D01*
X15277420Y-14478591D02*
X15277420Y-14440496D01*
X15277420Y-14440496D02*
X15286944Y-14392877D01*
X15286944Y-14392877D02*
X15296468Y-14364305D01*
X15296468Y-14364305D02*
X15305991Y-14345258D01*
X15305991Y-14345258D02*
X15325039Y-14316686D01*
X15325039Y-14316686D02*
X15334563Y-14307162D01*
X15401229Y-14354781D02*
X15410753Y-14345258D01*
X15410753Y-14345258D02*
X15429801Y-14335734D01*
X15429801Y-14335734D02*
X15477420Y-14335734D01*
X15477420Y-14335734D02*
X15496468Y-14345258D01*
X15496468Y-14345258D02*
X15505991Y-14354781D01*
X15505991Y-14354781D02*
X15515515Y-14373829D01*
X15515515Y-14373829D02*
X15515515Y-14392877D01*
X15515515Y-14392877D02*
X15505991Y-14421448D01*
X15505991Y-14421448D02*
X15391706Y-14535734D01*
X15391706Y-14535734D02*
X15515515Y-14535734D01*
X15753610Y-14535734D02*
X15753610Y-14335734D01*
X15839325Y-14535734D02*
X15839325Y-14430972D01*
X15839325Y-14430972D02*
X15829801Y-14411924D01*
X15829801Y-14411924D02*
X15810753Y-14402400D01*
X15810753Y-14402400D02*
X15782182Y-14402400D01*
X15782182Y-14402400D02*
X15763134Y-14411924D01*
X15763134Y-14411924D02*
X15753610Y-14421448D01*
X15963134Y-14535734D02*
X15944087Y-14526210D01*
X15944087Y-14526210D02*
X15934563Y-14516686D01*
X15934563Y-14516686D02*
X15925039Y-14497638D01*
X15925039Y-14497638D02*
X15925039Y-14440496D01*
X15925039Y-14440496D02*
X15934563Y-14421448D01*
X15934563Y-14421448D02*
X15944087Y-14411924D01*
X15944087Y-14411924D02*
X15963134Y-14402400D01*
X15963134Y-14402400D02*
X15991706Y-14402400D01*
X15991706Y-14402400D02*
X16010753Y-14411924D01*
X16010753Y-14411924D02*
X16020277Y-14421448D01*
X16020277Y-14421448D02*
X16029801Y-14440496D01*
X16029801Y-14440496D02*
X16029801Y-14497638D01*
X16029801Y-14497638D02*
X16020277Y-14516686D01*
X16020277Y-14516686D02*
X16010753Y-14526210D01*
X16010753Y-14526210D02*
X15991706Y-14535734D01*
X15991706Y-14535734D02*
X15963134Y-14535734D01*
X16144087Y-14535734D02*
X16125039Y-14526210D01*
X16125039Y-14526210D02*
X16115515Y-14507162D01*
X16115515Y-14507162D02*
X16115515Y-14335734D01*
X16296468Y-14526210D02*
X16277420Y-14535734D01*
X16277420Y-14535734D02*
X16239325Y-14535734D01*
X16239325Y-14535734D02*
X16220277Y-14526210D01*
X16220277Y-14526210D02*
X16210753Y-14507162D01*
X16210753Y-14507162D02*
X16210753Y-14430972D01*
X16210753Y-14430972D02*
X16220277Y-14411924D01*
X16220277Y-14411924D02*
X16239325Y-14402400D01*
X16239325Y-14402400D02*
X16277420Y-14402400D01*
X16277420Y-14402400D02*
X16296468Y-14411924D01*
X16296468Y-14411924D02*
X16305991Y-14430972D01*
X16305991Y-14430972D02*
X16305991Y-14450019D01*
X16305991Y-14450019D02*
X16210753Y-14469067D01*
X16382182Y-14526210D02*
X16401230Y-14535734D01*
X16401230Y-14535734D02*
X16439325Y-14535734D01*
X16439325Y-14535734D02*
X16458372Y-14526210D01*
X16458372Y-14526210D02*
X16467896Y-14507162D01*
X16467896Y-14507162D02*
X16467896Y-14497638D01*
X16467896Y-14497638D02*
X16458372Y-14478591D01*
X16458372Y-14478591D02*
X16439325Y-14469067D01*
X16439325Y-14469067D02*
X16410753Y-14469067D01*
X16410753Y-14469067D02*
X16391706Y-14459543D01*
X16391706Y-14459543D02*
X16382182Y-14440496D01*
X16382182Y-14440496D02*
X16382182Y-14430972D01*
X16382182Y-14430972D02*
X16391706Y-14411924D01*
X16391706Y-14411924D02*
X16410753Y-14402400D01*
X16410753Y-14402400D02*
X16439325Y-14402400D01*
X16439325Y-14402400D02*
X16458372Y-14411924D01*
X16534563Y-14611924D02*
X16544087Y-14602400D01*
X16544087Y-14602400D02*
X16563134Y-14573829D01*
X16563134Y-14573829D02*
X16572658Y-14554781D01*
X16572658Y-14554781D02*
X16582182Y-14526210D01*
X16582182Y-14526210D02*
X16591706Y-14478591D01*
X16591706Y-14478591D02*
X16591706Y-14440496D01*
X16591706Y-14440496D02*
X16582182Y-14392877D01*
X16582182Y-14392877D02*
X16572658Y-14364305D01*
X16572658Y-14364305D02*
X16563134Y-14345258D01*
X16563134Y-14345258D02*
X16544087Y-14316686D01*
X16544087Y-14316686D02*
X16534563Y-14307162D01*
X11559500Y-14608250D02*
X11759500Y-14808250D01*
X11759500Y-14608250D02*
X11559500Y-14808250D01*
X11659500Y-14608250D02*
X11659500Y-14808250D01*
X11559500Y-14708250D02*
X11759500Y-14708250D01*
X12010753Y-14618781D02*
X12020277Y-14609258D01*
X12020277Y-14609258D02*
X12039324Y-14599734D01*
X12039324Y-14599734D02*
X12086943Y-14599734D01*
X12086943Y-14599734D02*
X12105991Y-14609258D01*
X12105991Y-14609258D02*
X12115515Y-14618781D01*
X12115515Y-14618781D02*
X12125039Y-14637829D01*
X12125039Y-14637829D02*
X12125039Y-14656877D01*
X12125039Y-14656877D02*
X12115515Y-14685448D01*
X12115515Y-14685448D02*
X12001229Y-14799734D01*
X12001229Y-14799734D02*
X12125039Y-14799734D01*
X12210753Y-14780686D02*
X12220277Y-14790210D01*
X12220277Y-14790210D02*
X12210753Y-14799734D01*
X12210753Y-14799734D02*
X12201229Y-14790210D01*
X12201229Y-14790210D02*
X12210753Y-14780686D01*
X12210753Y-14780686D02*
X12210753Y-14799734D01*
X12296467Y-14618781D02*
X12305991Y-14609258D01*
X12305991Y-14609258D02*
X12325039Y-14599734D01*
X12325039Y-14599734D02*
X12372658Y-14599734D01*
X12372658Y-14599734D02*
X12391705Y-14609258D01*
X12391705Y-14609258D02*
X12401229Y-14618781D01*
X12401229Y-14618781D02*
X12410753Y-14637829D01*
X12410753Y-14637829D02*
X12410753Y-14656877D01*
X12410753Y-14656877D02*
X12401229Y-14685448D01*
X12401229Y-14685448D02*
X12286943Y-14799734D01*
X12286943Y-14799734D02*
X12410753Y-14799734D01*
X12534562Y-14599734D02*
X12553610Y-14599734D01*
X12553610Y-14599734D02*
X12572658Y-14609258D01*
X12572658Y-14609258D02*
X12582182Y-14618781D01*
X12582182Y-14618781D02*
X12591705Y-14637829D01*
X12591705Y-14637829D02*
X12601229Y-14675924D01*
X12601229Y-14675924D02*
X12601229Y-14723543D01*
X12601229Y-14723543D02*
X12591705Y-14761638D01*
X12591705Y-14761638D02*
X12582182Y-14780686D01*
X12582182Y-14780686D02*
X12572658Y-14790210D01*
X12572658Y-14790210D02*
X12553610Y-14799734D01*
X12553610Y-14799734D02*
X12534562Y-14799734D01*
X12534562Y-14799734D02*
X12515515Y-14790210D01*
X12515515Y-14790210D02*
X12505991Y-14780686D01*
X12505991Y-14780686D02*
X12496467Y-14761638D01*
X12496467Y-14761638D02*
X12486943Y-14723543D01*
X12486943Y-14723543D02*
X12486943Y-14675924D01*
X12486943Y-14675924D02*
X12496467Y-14637829D01*
X12496467Y-14637829D02*
X12505991Y-14618781D01*
X12505991Y-14618781D02*
X12515515Y-14609258D01*
X12515515Y-14609258D02*
X12534562Y-14599734D01*
X12725039Y-14599734D02*
X12744086Y-14599734D01*
X12744086Y-14599734D02*
X12763134Y-14609258D01*
X12763134Y-14609258D02*
X12772658Y-14618781D01*
X12772658Y-14618781D02*
X12782182Y-14637829D01*
X12782182Y-14637829D02*
X12791705Y-14675924D01*
X12791705Y-14675924D02*
X12791705Y-14723543D01*
X12791705Y-14723543D02*
X12782182Y-14761638D01*
X12782182Y-14761638D02*
X12772658Y-14780686D01*
X12772658Y-14780686D02*
X12763134Y-14790210D01*
X12763134Y-14790210D02*
X12744086Y-14799734D01*
X12744086Y-14799734D02*
X12725039Y-14799734D01*
X12725039Y-14799734D02*
X12705991Y-14790210D01*
X12705991Y-14790210D02*
X12696467Y-14780686D01*
X12696467Y-14780686D02*
X12686943Y-14761638D01*
X12686943Y-14761638D02*
X12677420Y-14723543D01*
X12677420Y-14723543D02*
X12677420Y-14675924D01*
X12677420Y-14675924D02*
X12686943Y-14637829D01*
X12686943Y-14637829D02*
X12696467Y-14618781D01*
X12696467Y-14618781D02*
X12705991Y-14609258D01*
X12705991Y-14609258D02*
X12725039Y-14599734D01*
X12877420Y-14799734D02*
X12877420Y-14666400D01*
X12877420Y-14685448D02*
X12886943Y-14675924D01*
X12886943Y-14675924D02*
X12905991Y-14666400D01*
X12905991Y-14666400D02*
X12934563Y-14666400D01*
X12934563Y-14666400D02*
X12953610Y-14675924D01*
X12953610Y-14675924D02*
X12963134Y-14694972D01*
X12963134Y-14694972D02*
X12963134Y-14799734D01*
X12963134Y-14694972D02*
X12972658Y-14675924D01*
X12972658Y-14675924D02*
X12991705Y-14666400D01*
X12991705Y-14666400D02*
X13020277Y-14666400D01*
X13020277Y-14666400D02*
X13039324Y-14675924D01*
X13039324Y-14675924D02*
X13048848Y-14694972D01*
X13048848Y-14694972D02*
X13048848Y-14799734D01*
X13144086Y-14799734D02*
X13144086Y-14666400D01*
X13144086Y-14685448D02*
X13153610Y-14675924D01*
X13153610Y-14675924D02*
X13172658Y-14666400D01*
X13172658Y-14666400D02*
X13201229Y-14666400D01*
X13201229Y-14666400D02*
X13220277Y-14675924D01*
X13220277Y-14675924D02*
X13229801Y-14694972D01*
X13229801Y-14694972D02*
X13229801Y-14799734D01*
X13229801Y-14694972D02*
X13239324Y-14675924D01*
X13239324Y-14675924D02*
X13258372Y-14666400D01*
X13258372Y-14666400D02*
X13286943Y-14666400D01*
X13286943Y-14666400D02*
X13305991Y-14675924D01*
X13305991Y-14675924D02*
X13315515Y-14694972D01*
X13315515Y-14694972D02*
X13315515Y-14799734D01*
X13705991Y-14590210D02*
X13534563Y-14847353D01*
X13963134Y-14599734D02*
X13982182Y-14599734D01*
X13982182Y-14599734D02*
X14001229Y-14609258D01*
X14001229Y-14609258D02*
X14010753Y-14618781D01*
X14010753Y-14618781D02*
X14020277Y-14637829D01*
X14020277Y-14637829D02*
X14029801Y-14675924D01*
X14029801Y-14675924D02*
X14029801Y-14723543D01*
X14029801Y-14723543D02*
X14020277Y-14761638D01*
X14020277Y-14761638D02*
X14010753Y-14780686D01*
X14010753Y-14780686D02*
X14001229Y-14790210D01*
X14001229Y-14790210D02*
X13982182Y-14799734D01*
X13982182Y-14799734D02*
X13963134Y-14799734D01*
X13963134Y-14799734D02*
X13944086Y-14790210D01*
X13944086Y-14790210D02*
X13934563Y-14780686D01*
X13934563Y-14780686D02*
X13925039Y-14761638D01*
X13925039Y-14761638D02*
X13915515Y-14723543D01*
X13915515Y-14723543D02*
X13915515Y-14675924D01*
X13915515Y-14675924D02*
X13925039Y-14637829D01*
X13925039Y-14637829D02*
X13934563Y-14618781D01*
X13934563Y-14618781D02*
X13944086Y-14609258D01*
X13944086Y-14609258D02*
X13963134Y-14599734D01*
X14115515Y-14780686D02*
X14125039Y-14790210D01*
X14125039Y-14790210D02*
X14115515Y-14799734D01*
X14115515Y-14799734D02*
X14105991Y-14790210D01*
X14105991Y-14790210D02*
X14115515Y-14780686D01*
X14115515Y-14780686D02*
X14115515Y-14799734D01*
X14248848Y-14599734D02*
X14267896Y-14599734D01*
X14267896Y-14599734D02*
X14286944Y-14609258D01*
X14286944Y-14609258D02*
X14296467Y-14618781D01*
X14296467Y-14618781D02*
X14305991Y-14637829D01*
X14305991Y-14637829D02*
X14315515Y-14675924D01*
X14315515Y-14675924D02*
X14315515Y-14723543D01*
X14315515Y-14723543D02*
X14305991Y-14761638D01*
X14305991Y-14761638D02*
X14296467Y-14780686D01*
X14296467Y-14780686D02*
X14286944Y-14790210D01*
X14286944Y-14790210D02*
X14267896Y-14799734D01*
X14267896Y-14799734D02*
X14248848Y-14799734D01*
X14248848Y-14799734D02*
X14229801Y-14790210D01*
X14229801Y-14790210D02*
X14220277Y-14780686D01*
X14220277Y-14780686D02*
X14210753Y-14761638D01*
X14210753Y-14761638D02*
X14201229Y-14723543D01*
X14201229Y-14723543D02*
X14201229Y-14675924D01*
X14201229Y-14675924D02*
X14210753Y-14637829D01*
X14210753Y-14637829D02*
X14220277Y-14618781D01*
X14220277Y-14618781D02*
X14229801Y-14609258D01*
X14229801Y-14609258D02*
X14248848Y-14599734D01*
X14429801Y-14685448D02*
X14410753Y-14675924D01*
X14410753Y-14675924D02*
X14401229Y-14666400D01*
X14401229Y-14666400D02*
X14391706Y-14647353D01*
X14391706Y-14647353D02*
X14391706Y-14637829D01*
X14391706Y-14637829D02*
X14401229Y-14618781D01*
X14401229Y-14618781D02*
X14410753Y-14609258D01*
X14410753Y-14609258D02*
X14429801Y-14599734D01*
X14429801Y-14599734D02*
X14467896Y-14599734D01*
X14467896Y-14599734D02*
X14486944Y-14609258D01*
X14486944Y-14609258D02*
X14496467Y-14618781D01*
X14496467Y-14618781D02*
X14505991Y-14637829D01*
X14505991Y-14637829D02*
X14505991Y-14647353D01*
X14505991Y-14647353D02*
X14496467Y-14666400D01*
X14496467Y-14666400D02*
X14486944Y-14675924D01*
X14486944Y-14675924D02*
X14467896Y-14685448D01*
X14467896Y-14685448D02*
X14429801Y-14685448D01*
X14429801Y-14685448D02*
X14410753Y-14694972D01*
X14410753Y-14694972D02*
X14401229Y-14704496D01*
X14401229Y-14704496D02*
X14391706Y-14723543D01*
X14391706Y-14723543D02*
X14391706Y-14761638D01*
X14391706Y-14761638D02*
X14401229Y-14780686D01*
X14401229Y-14780686D02*
X14410753Y-14790210D01*
X14410753Y-14790210D02*
X14429801Y-14799734D01*
X14429801Y-14799734D02*
X14467896Y-14799734D01*
X14467896Y-14799734D02*
X14486944Y-14790210D01*
X14486944Y-14790210D02*
X14496467Y-14780686D01*
X14496467Y-14780686D02*
X14505991Y-14761638D01*
X14505991Y-14761638D02*
X14505991Y-14723543D01*
X14505991Y-14723543D02*
X14496467Y-14704496D01*
X14496467Y-14704496D02*
X14486944Y-14694972D01*
X14486944Y-14694972D02*
X14467896Y-14685448D01*
X14677420Y-14599734D02*
X14639325Y-14599734D01*
X14639325Y-14599734D02*
X14620277Y-14609258D01*
X14620277Y-14609258D02*
X14610753Y-14618781D01*
X14610753Y-14618781D02*
X14591706Y-14647353D01*
X14591706Y-14647353D02*
X14582182Y-14685448D01*
X14582182Y-14685448D02*
X14582182Y-14761638D01*
X14582182Y-14761638D02*
X14591706Y-14780686D01*
X14591706Y-14780686D02*
X14601229Y-14790210D01*
X14601229Y-14790210D02*
X14620277Y-14799734D01*
X14620277Y-14799734D02*
X14658372Y-14799734D01*
X14658372Y-14799734D02*
X14677420Y-14790210D01*
X14677420Y-14790210D02*
X14686944Y-14780686D01*
X14686944Y-14780686D02*
X14696467Y-14761638D01*
X14696467Y-14761638D02*
X14696467Y-14714019D01*
X14696467Y-14714019D02*
X14686944Y-14694972D01*
X14686944Y-14694972D02*
X14677420Y-14685448D01*
X14677420Y-14685448D02*
X14658372Y-14675924D01*
X14658372Y-14675924D02*
X14620277Y-14675924D01*
X14620277Y-14675924D02*
X14601229Y-14685448D01*
X14601229Y-14685448D02*
X14591706Y-14694972D01*
X14591706Y-14694972D02*
X14582182Y-14714019D01*
X14867896Y-14599734D02*
X14829801Y-14599734D01*
X14829801Y-14599734D02*
X14810753Y-14609258D01*
X14810753Y-14609258D02*
X14801229Y-14618781D01*
X14801229Y-14618781D02*
X14782182Y-14647353D01*
X14782182Y-14647353D02*
X14772658Y-14685448D01*
X14772658Y-14685448D02*
X14772658Y-14761638D01*
X14772658Y-14761638D02*
X14782182Y-14780686D01*
X14782182Y-14780686D02*
X14791706Y-14790210D01*
X14791706Y-14790210D02*
X14810753Y-14799734D01*
X14810753Y-14799734D02*
X14848848Y-14799734D01*
X14848848Y-14799734D02*
X14867896Y-14790210D01*
X14867896Y-14790210D02*
X14877420Y-14780686D01*
X14877420Y-14780686D02*
X14886944Y-14761638D01*
X14886944Y-14761638D02*
X14886944Y-14714019D01*
X14886944Y-14714019D02*
X14877420Y-14694972D01*
X14877420Y-14694972D02*
X14867896Y-14685448D01*
X14867896Y-14685448D02*
X14848848Y-14675924D01*
X14848848Y-14675924D02*
X14810753Y-14675924D01*
X14810753Y-14675924D02*
X14791706Y-14685448D01*
X14791706Y-14685448D02*
X14782182Y-14694972D01*
X14782182Y-14694972D02*
X14772658Y-14714019D01*
X14963134Y-14599734D02*
X14963134Y-14637829D01*
X15039325Y-14599734D02*
X15039325Y-14637829D01*
X15334563Y-14875924D02*
X15325039Y-14866400D01*
X15325039Y-14866400D02*
X15305991Y-14837829D01*
X15305991Y-14837829D02*
X15296468Y-14818781D01*
X15296468Y-14818781D02*
X15286944Y-14790210D01*
X15286944Y-14790210D02*
X15277420Y-14742591D01*
X15277420Y-14742591D02*
X15277420Y-14704496D01*
X15277420Y-14704496D02*
X15286944Y-14656877D01*
X15286944Y-14656877D02*
X15296468Y-14628305D01*
X15296468Y-14628305D02*
X15305991Y-14609258D01*
X15305991Y-14609258D02*
X15325039Y-14580686D01*
X15325039Y-14580686D02*
X15334563Y-14571162D01*
X15401229Y-14618781D02*
X15410753Y-14609258D01*
X15410753Y-14609258D02*
X15429801Y-14599734D01*
X15429801Y-14599734D02*
X15477420Y-14599734D01*
X15477420Y-14599734D02*
X15496468Y-14609258D01*
X15496468Y-14609258D02*
X15505991Y-14618781D01*
X15505991Y-14618781D02*
X15515515Y-14637829D01*
X15515515Y-14637829D02*
X15515515Y-14656877D01*
X15515515Y-14656877D02*
X15505991Y-14685448D01*
X15505991Y-14685448D02*
X15391706Y-14799734D01*
X15391706Y-14799734D02*
X15515515Y-14799734D01*
X15753610Y-14799734D02*
X15753610Y-14599734D01*
X15839325Y-14799734D02*
X15839325Y-14694972D01*
X15839325Y-14694972D02*
X15829801Y-14675924D01*
X15829801Y-14675924D02*
X15810753Y-14666400D01*
X15810753Y-14666400D02*
X15782182Y-14666400D01*
X15782182Y-14666400D02*
X15763134Y-14675924D01*
X15763134Y-14675924D02*
X15753610Y-14685448D01*
X15963134Y-14799734D02*
X15944087Y-14790210D01*
X15944087Y-14790210D02*
X15934563Y-14780686D01*
X15934563Y-14780686D02*
X15925039Y-14761638D01*
X15925039Y-14761638D02*
X15925039Y-14704496D01*
X15925039Y-14704496D02*
X15934563Y-14685448D01*
X15934563Y-14685448D02*
X15944087Y-14675924D01*
X15944087Y-14675924D02*
X15963134Y-14666400D01*
X15963134Y-14666400D02*
X15991706Y-14666400D01*
X15991706Y-14666400D02*
X16010753Y-14675924D01*
X16010753Y-14675924D02*
X16020277Y-14685448D01*
X16020277Y-14685448D02*
X16029801Y-14704496D01*
X16029801Y-14704496D02*
X16029801Y-14761638D01*
X16029801Y-14761638D02*
X16020277Y-14780686D01*
X16020277Y-14780686D02*
X16010753Y-14790210D01*
X16010753Y-14790210D02*
X15991706Y-14799734D01*
X15991706Y-14799734D02*
X15963134Y-14799734D01*
X16144087Y-14799734D02*
X16125039Y-14790210D01*
X16125039Y-14790210D02*
X16115515Y-14771162D01*
X16115515Y-14771162D02*
X16115515Y-14599734D01*
X16296468Y-14790210D02*
X16277420Y-14799734D01*
X16277420Y-14799734D02*
X16239325Y-14799734D01*
X16239325Y-14799734D02*
X16220277Y-14790210D01*
X16220277Y-14790210D02*
X16210753Y-14771162D01*
X16210753Y-14771162D02*
X16210753Y-14694972D01*
X16210753Y-14694972D02*
X16220277Y-14675924D01*
X16220277Y-14675924D02*
X16239325Y-14666400D01*
X16239325Y-14666400D02*
X16277420Y-14666400D01*
X16277420Y-14666400D02*
X16296468Y-14675924D01*
X16296468Y-14675924D02*
X16305991Y-14694972D01*
X16305991Y-14694972D02*
X16305991Y-14714019D01*
X16305991Y-14714019D02*
X16210753Y-14733067D01*
X16382182Y-14790210D02*
X16401230Y-14799734D01*
X16401230Y-14799734D02*
X16439325Y-14799734D01*
X16439325Y-14799734D02*
X16458372Y-14790210D01*
X16458372Y-14790210D02*
X16467896Y-14771162D01*
X16467896Y-14771162D02*
X16467896Y-14761638D01*
X16467896Y-14761638D02*
X16458372Y-14742591D01*
X16458372Y-14742591D02*
X16439325Y-14733067D01*
X16439325Y-14733067D02*
X16410753Y-14733067D01*
X16410753Y-14733067D02*
X16391706Y-14723543D01*
X16391706Y-14723543D02*
X16382182Y-14704496D01*
X16382182Y-14704496D02*
X16382182Y-14694972D01*
X16382182Y-14694972D02*
X16391706Y-14675924D01*
X16391706Y-14675924D02*
X16410753Y-14666400D01*
X16410753Y-14666400D02*
X16439325Y-14666400D01*
X16439325Y-14666400D02*
X16458372Y-14675924D01*
X16534563Y-14875924D02*
X16544087Y-14866400D01*
X16544087Y-14866400D02*
X16563134Y-14837829D01*
X16563134Y-14837829D02*
X16572658Y-14818781D01*
X16572658Y-14818781D02*
X16582182Y-14790210D01*
X16582182Y-14790210D02*
X16591706Y-14742591D01*
X16591706Y-14742591D02*
X16591706Y-14704496D01*
X16591706Y-14704496D02*
X16582182Y-14656877D01*
X16582182Y-14656877D02*
X16572658Y-14628305D01*
X16572658Y-14628305D02*
X16563134Y-14609258D01*
X16563134Y-14609258D02*
X16544087Y-14580686D01*
X16544087Y-14580686D02*
X16534563Y-14571162D01*
M02*
